<?xml version="1.0" encoding="UTF-8"?>
<svg version="1.1" xmlns="http://www.w3.org/2000/svg" width="500" height="500">
<path d="M0 0 C165 0 330 0 500 0 C500 165 500 330 500 500 C335 500 170 500 0 500 C0 335 0 170 0 0 Z " fill="#053262" transform="translate(0,0)"/>
<path d="M0 0 C2.375 1.75 2.375 1.75 5 4 C6.48899782 4.6108709 7.99039499 5.19199419 9.5 5.75 C13.76365916 7.58741718 15.8462381 9.57188778 18.0703125 13.62890625 C19.7630818 17.94617921 20.43538695 22.41567909 21 27 C22.093125 27.0825 23.18625 27.165 24.3125 27.25 C28.94482442 27.80751869 32.96805582 29.41029764 37.30078125 31.078125 C40.89750958 32.30653005 44.22011773 32.71472587 48 33 C48 33.33 48 33.66 48 34 C45.69 34 43.38 34 41 34 C40.93941406 34.75023437 40.87882812 35.50046875 40.81640625 36.2734375 C40.69072266 37.80871094 40.69072266 37.80871094 40.5625 39.375 C40.44068359 40.87160156 40.44068359 40.87160156 40.31640625 42.3984375 C40.14655677 44.33178592 39.97041852 46.26489013 39.75502014 48.19369507 C39.10464306 54.09270643 38.85319644 59.89620083 38.8671875 65.828125 C38.86586823 66.73244263 38.86454895 67.63676025 38.8631897 68.56848145 C38.86129588 71.46235747 38.86755427 74.35613408 38.875 77.25 C38.87588623 78.23133911 38.87677246 79.21267822 38.87768555 80.22375488 C38.89253981 94.17247475 39.06740307 108.0776601 40 122 C39.67 122 39.34 122 39 122 C38.79632813 120.96746094 38.59265625 119.93492187 38.3828125 118.87109375 C37.08807645 114.33951757 34.40199656 112.02075814 30.875 109.0625 C30.31167969 108.56943359 29.74835938 108.07636719 29.16796875 107.56835938 C27.79010639 106.36564901 26.39659167 105.18091008 25 104 C23.94678343 108.45748432 23.38144793 112.43948898 24 117 C27.03797439 120.71576947 30.82784932 122.71560944 35 125 C36.01964844 125.63808594 37.03929687 126.27617187 38.08984375 126.93359375 C48.08877141 133.12340611 57.26850556 136.06866334 69.0625 136.3125 C70.24972656 136.34988281 71.43695313 136.38726562 72.66015625 136.42578125 C76.63620188 135.91889356 78.24301146 134.86460334 81 132 C82.02759347 126.06279327 80.13672283 121.88621895 77 117 C68.65042022 105.15121743 68.65042022 105.15121743 57.95507812 95.7199707 C55.38853027 93.98175401 53.76064758 92.56968484 52 90 C51.00467508 84.48751847 51.24213322 79.13643648 51.5 73.5625 C51.54017582 72.05282873 51.57666945 70.54305471 51.609375 69.03320312 C51.69705951 65.35331638 51.83482722 61.67731782 52 58 C58.23028618 61.89966764 63.65500048 66.14863725 68.9375 71.25 C69.6291626 71.91040283 70.3208252 72.57080566 71.03344727 73.2512207 C72.40579489 74.56525917 73.77497034 75.88262029 75.140625 77.20361328 C76.7298542 78.73900567 78.33053238 80.26059783 79.9375 81.77734375 C86.04983365 87.6700154 91.14058072 94.04506906 96 101 C96.65226563 101.93070312 97.30453125 102.86140625 97.9765625 103.8203125 C105.45450751 114.98949845 109.15946459 126.52332465 108 140 C106.30582419 147.61839567 102.55910742 152.78742164 96 157 C84.97607335 162.57080991 72.9680969 160.57006372 61.55078125 157.23046875 C57.11615938 155.6937186 52.88621157 153.84421851 48.68359375 151.7578125 C43.34324511 150.24976645 38.6409412 153.59744496 34.02734375 156.09765625 C25.63780833 159.83172693 15.50703814 158.87261474 7.1328125 155.8046875 C4.78760899 154.85059168 2.45172464 153.87331395 0.125 152.875 C-1.12106667 152.36063444 -2.36806808 151.84852782 -3.6159668 151.33862305 C-7.08691746 149.91498661 -10.54366166 148.458771 -14 147 C-16.59923671 145.92443531 -19.20409852 144.86583648 -21.8125 143.8125 C-22.90691406 143.36777344 -24.00132812 142.92304688 -25.12890625 142.46484375 C-28.35323736 141.20723924 -31.62060245 140.10229129 -34.90234375 139.00390625 C-35.94865967 138.65158936 -36.99497559 138.29927246 -38.07299805 137.9362793 C-40.15236515 137.24166554 -42.23578434 136.55903846 -44.32348633 135.88989258 C-45.74890747 135.41459106 -45.74890747 135.41459106 -47.203125 134.9296875 C-48.05551758 134.65366699 -48.90791016 134.37764648 -49.78613281 134.09326172 C-52.42785783 132.78871335 -53.52926778 131.53493527 -55 129 C-54.78678027 124.20255605 -52.97809101 120.30019785 -51 116 C-51.76183594 115.58041016 -51.76183594 115.58041016 -52.5390625 115.15234375 C-64.2220032 108.34823409 -69.26874243 97.78125593 -72.84130859 84.98486328 C-76.68774098 69.77861046 -77.08423334 53.58985083 -69.64453125 39.41796875 C-64.18208442 30.58725713 -56.79356116 25.04882278 -46.7265625 22.40234375 C-43.14657325 21.87406453 -39.60929392 21.85502236 -36 21.875 C-35.30132812 21.87113281 -34.60265625 21.86726563 -33.8828125 21.86328125 C-30.12925702 21.87036343 -26.64848855 22.10212977 -23 23 C-22.82984375 22.34773438 -22.6596875 21.69546875 -22.484375 21.0234375 C-20.02311168 12.14717935 -16.34511621 6.55406571 -9 1 C-5.89951072 -0.55024464 -3.42105782 -0.28992015 0 0 Z " fill="#155873" transform="translate(233,130)"/>
<path d="M0 0 C2.375 1.75 2.375 1.75 5 4 C6.48899782 4.6108709 7.99039499 5.19199419 9.5 5.75 C13.76365916 7.58741718 15.8462381 9.57188778 18.0703125 13.62890625 C19.7630818 17.94617921 20.43538695 22.41567909 21 27 C22.093125 27.0825 23.18625 27.165 24.3125 27.25 C28.94482442 27.80751869 32.96805582 29.41029764 37.30078125 31.078125 C40.89750958 32.30653005 44.22011773 32.71472587 48 33 C48 33.33 48 33.66 48 34 C45.69 34 43.38 34 41 34 C40.93941406 34.75023437 40.87882812 35.50046875 40.81640625 36.2734375 C40.69072266 37.80871094 40.69072266 37.80871094 40.5625 39.375 C40.44068359 40.87160156 40.44068359 40.87160156 40.31640625 42.3984375 C40.14655677 44.33178592 39.97041852 46.26489013 39.75502014 48.19369507 C39.10464306 54.09270643 38.85319644 59.89620083 38.8671875 65.828125 C38.86586823 66.73244263 38.86454895 67.63676025 38.8631897 68.56848145 C38.86129588 71.46235747 38.86755427 74.35613408 38.875 77.25 C38.87588623 78.23133911 38.87677246 79.21267822 38.87768555 80.22375488 C38.89253981 94.17247475 39.06740307 108.0776601 40 122 C39.67 122 39.34 122 39 122 C38.79632813 120.96746094 38.59265625 119.93492187 38.3828125 118.87109375 C37.08807645 114.33951757 34.40199656 112.02075814 30.875 109.0625 C30.31167969 108.56943359 29.74835938 108.07636719 29.16796875 107.56835938 C27.79010639 106.36564901 26.39659167 105.18091008 25 104 C24.34 108.29 23.68 112.58 23 117 C18.04099509 113.36929997 13.40605786 109.66093518 8.95703125 105.41796875 C6.65365221 103.7490534 4.79416312 103.37158991 2 103 C2.33 102.34 2.66 101.68 3 101 C5.03125 100.40234375 5.03125 100.40234375 7.5 99.9375 C10.53773221 99.54135157 10.53773221 99.54135157 13 98 C5.44961578 98.65349633 5.44961578 98.65349633 -2 100 C-2.2475 100.825 -2.495 101.65 -2.75 102.5 C-4.18704811 106.52373471 -6.02354515 110.21979024 -8 114 C-8.99 114 -9.98 114 -11 114 C-12.485 106.575 -12.485 106.575 -14 99 C-14.66 100.98 -15.32 102.96 -16 105 C-21.87763953 104.20129637 -25.0544279 101.25301928 -29 97 C-32.52960936 91.26438479 -32.54276942 85.55498457 -32 79 C-31.67 78.01 -31.34 77.02 -31 76 C-34.15543256 81.221037 -33.70253003 87.11279834 -33 93 C-31.46291938 96.81905415 -29.36452941 99.7537085 -26.33203125 102.5234375 C-25 104 -25 104 -25 107 C-21.37 107.99 -17.74 108.98 -14 110 C-14 110.99 -14 111.98 -14 113 C-22.15821801 112.56295261 -27.63677949 109.77830974 -33.25 103.8125 C-42.36020272 92.31924698 -41.23138838 77.71241545 -40.86791992 63.86352539 C-40.81201694 61.54244334 -40.78391233 59.22195587 -40.75585938 56.90039062 C-40.72045415 55.41402093 -40.68340504 53.92768927 -40.64453125 52.44140625 C-40.64016556 51.75285049 -40.63579987 51.06429474 -40.63130188 50.35487366 C-40.5116194 46.99123644 -40.21084653 45.26447302 -38.08691406 42.6003418 C-36.04401606 41.03375354 -34.36018975 40.09023922 -31.9375 39.25 C-31.26589844 39.00765625 -30.59429687 38.7653125 -29.90234375 38.515625 C-28 38 -28 38 -25 38 C-24.97421875 37.20078125 -24.9484375 36.4015625 -24.921875 35.578125 C-24.35995729 24.69735481 -22.5127038 13.19072743 -14.26171875 5.34765625 C-9.39520171 1.06552428 -6.75449174 -0.57241455 0 0 Z " fill="#339650" transform="translate(233,130)"/>
<path d="M0 0 C6.23028618 3.89966764 11.65500048 8.14863725 16.9375 13.25 C17.9749939 14.24060425 17.9749939 14.24060425 19.03344727 15.2512207 C20.40579489 16.56525917 21.77497034 17.88262029 23.140625 19.20361328 C24.7298542 20.73900567 26.33053238 22.26059783 27.9375 23.77734375 C34.04983365 29.6700154 39.14058072 36.04506906 44 43 C44.97839844 44.39605469 44.97839844 44.39605469 45.9765625 45.8203125 C53.45450751 56.98949845 57.15946459 68.52332465 56 82 C54.30582419 89.61839567 50.55910742 94.78742164 44 99 C33.10156724 104.50739307 21.02632525 102.66837006 9.71484375 99.25 C8.48894531 98.8375 7.26304687 98.425 6 98 C4.76378906 97.5875 3.52757812 97.175 2.25390625 96.75 C-19.51396739 88.7767518 -38.08149286 72.55199165 -49.91796875 52.7265625 C-51.14901221 49.62451075 -50.98729189 48.13878924 -50 45 C-46.9381766 44.68473372 -45.47465712 44.64877188 -42.95703125 46.51171875 C-42.24933594 47.22972656 -41.54164063 47.94773438 -40.8125 48.6875 C-24.93843491 63.70735531 -5.43173235 77.8474397 17.0625 78.3125 C18.24972656 78.34988281 19.43695313 78.38726562 20.66015625 78.42578125 C24.63620188 77.91889356 26.24301146 76.86460334 29 74 C30.02759347 68.06279327 28.13672283 63.88621895 25 59 C16.65042022 47.15121743 16.65042022 47.15121743 5.95507812 37.7199707 C3.38853027 35.98175401 1.76064758 34.56968484 0 32 C-0.99532492 26.48751847 -0.75786678 21.13643648 -0.5 15.5625 C-0.45982418 14.05282873 -0.42333055 12.54305471 -0.390625 11.03320312 C-0.30294049 7.35331638 -0.16517278 3.67731782 0 0 Z " fill="#891C5B" transform="translate(285,188)"/>
<path d="M0 0 C0.69867188 -0.00386719 1.39734375 -0.00773438 2.1171875 -0.01171875 C5.87074298 -0.00463657 9.35151145 0.22712977 13 1.125 C12.9734733 6.39718246 12.6920918 11.10227182 11 16.125 C7.25925735 18.91452523 3.44569805 19.89359216 -1 21.125 C-3.30101076 23.052112 -3.30101076 23.052112 -3.625 26.375 C-5.29619387 30.93280147 -7.22474478 32.15933353 -11.22265625 34.66796875 C-13.07822764 36.00567783 -13.07822764 36.00567783 -13.98828125 37.9140625 C-14.00643587 41.33923426 -11.98171622 43.57843009 -10.125 46.3125 C-6.16584131 52.57410049 -5.12318102 57.81322163 -5.21337891 65.17456055 C-5.25712088 70.39672678 -4.14242938 73.49150444 -2 78.125 C-2 82.40779056 -2.70383675 85.11004099 -5.3125 88.4375 C-8.86943235 91.99443235 -10.21170452 93.0906097 -15.25 93.1875 C-21.87109275 91.31152372 -25.64934744 87.55519853 -29.14453125 81.69921875 C-38.39451017 64.96298306 -42.57062617 44.73045063 -37.375 26 C-33.98460459 16.63775023 -28.64101918 8.69126159 -19.73046875 3.90625 C-13.09032351 0.82293215 -7.31890371 -0.04051054 0 0 Z " fill="#CC374B" transform="translate(197,151.875)"/>
<path d="M0 0 C-0.01633987 0.66239685 -0.03267975 1.3247937 -0.04951477 2.00726318 C-0.20780531 8.95182847 -0.27329649 15.89303279 -0.28686523 22.83935547 C-0.30381595 25.42522694 -0.34379838 28.01106046 -0.40795898 30.59619141 C-1.46548963 45.69641665 -1.46548963 45.69641665 3.78955078 59.22583008 C6.39543708 61.84264534 9.24301792 63.86709742 12.35792542 65.83122253 C19.7213535 71.07228095 25.13469054 79.98173015 29 88 C29.33 88.66 29.66 89.32 30 90 C30.57855736 94.3805057 30.4959561 96.31441362 27.875 99.9375 C21.9987126 104.13682802 13.55140615 102.53622717 6.84375 101.5234375 C-5.9566436 98.72756206 -19.64153011 91.35846989 -29 82 C-28.90968426 79.64305046 -28.75311872 77.28846418 -28.5625 74.9375 C-28.46066406 73.64714844 -28.35882813 72.35679687 -28.25390625 71.02734375 C-28.17011719 70.02832031 -28.08632813 69.02929688 -28 68 C-22.96835174 72.29786622 -17.97420976 76.6358418 -13 81 C-13.06928711 80.09588379 -13.13857422 79.19176758 -13.20996094 78.26025391 C-14.02655282 66.62890509 -14.23708041 55.03294053 -14.25 43.375 C-14.25233643 42.40864624 -14.25467285 41.44229248 -14.25708008 40.44665527 C-14.26988998 26.4052601 -13.77529262 12.81038472 -11 -1 C-6.50114053 -1.86516528 -3.98352209 -2.30903272 0 0 Z " fill="#267A5D" transform="translate(285,165)"/>
<path d="M0 0 C3.0618234 -0.31526628 4.52534288 -0.35122812 7.04296875 1.51171875 C7.75066406 2.22972656 8.45835937 2.94773438 9.1875 3.6875 C21.66506712 15.49362853 37.33369444 27.27788009 54 32 C54 32.66 54 33.32 54 34 C55.83072917 34.45768229 57.66145833 34.91536458 59.4921875 35.37304688 C60.98177083 35.74544271 62.47135417 36.11783854 63.9609375 36.49023438 C65.02441406 36.75610352 65.02441406 36.75610352 66.109375 37.02734375 C68.10825096 37.52706274 70.10600314 38.02767175 72.09960938 38.5480957 C78.95911336 40.17925473 85.79907003 39.2454756 92 36 C95.45553951 33.67126685 97.50795284 31.88063143 99 28 C99.83818336 19.71562956 99.53310024 12.40491867 95.77734375 4.85546875 C95.52082031 4.24316406 95.26429688 3.63085938 95 3 C95.33 2.34 95.66 1.68 96 1 C103.60341284 11.87537329 107.14036471 23.74532612 106 37 C104.30582419 44.61839567 100.55910742 49.78742164 94 54 C83.10156724 59.50739307 71.02632525 57.66837006 59.71484375 54.25 C57.87599609 53.63125 57.87599609 53.63125 56 53 C54.76378906 52.5875 53.52757812 52.175 52.25390625 51.75 C30.48603261 43.7767518 11.91850714 27.55199165 0.08203125 7.7265625 C-1.14901221 4.62451075 -0.98729189 3.13878924 0 0 Z " fill="#F28347" transform="translate(235,233)"/>
<path d="M0 0 C0.66 1.32 1.32 2.64 2 4 C1.34773438 3.9071875 0.69546875 3.814375 0.0234375 3.71875 C-5.2644642 3.21852577 -5.2644642 3.21852577 -9.859375 5.46484375 C-14.23732997 11.16295525 -17.40719263 17.9979557 -19 25 C-17.02 25.33 -15.04 25.66 -13 26 C-13.34689507 31.37687366 -13.34689507 31.37687366 -14 34 C-16.52236045 36.01788836 -17.75096951 36 -21 36 C-21.04125 37.27875 -21.0825 38.5575 -21.125 39.875 C-21.14820313 40.59429687 -21.17140625 41.31359375 -21.1953125 42.0546875 C-21.18331689 44.23863645 -21.18331689 44.23863645 -19 46 C-19.375 48.625 -19.375 48.625 -20 51 C-19.67 51 -19.34 51 -19 51 C-18.83318891 48.08347826 -18.83318891 48.08347826 -19 45 C-19.66 44.34 -20.32 43.68 -21 43 C-21.125 39.875 -21.125 39.875 -21 37 C-17.12796701 35.98826657 -13.25194898 34.99271358 -9.375 34 C-8.28058594 33.71382812 -7.18617188 33.42765625 -6.05859375 33.1328125 C-4.99511719 32.86210937 -3.93164062 32.59140625 -2.8359375 32.3125 C-1.86188965 32.06113281 -0.8878418 31.80976563 0.11572266 31.55078125 C3.1427916 30.97273253 5.9256982 30.90430189 9 31 C8.25 35.75 8.25 35.75 6 38 C6.32198966 41.09926819 6.32198966 41.09926819 7 44 C5.87464844 43.7525 5.87464844 43.7525 4.7265625 43.5 C-0.03164152 42.73293436 -3.52896594 42.21465119 -7.8828125 44.5390625 C-12.18020676 47.96414987 -15.64357992 51.65191035 -19 56 C-18.17757812 55.95359375 -17.35515625 55.9071875 -16.5078125 55.859375 C-6.59660162 55.53892014 0.56543457 56.96495379 8.375 63.25 C13.76508668 68.31341476 16.8576515 74.60427832 17.09765625 82.015625 C17.08605469 83.08296875 17.07445312 84.1503125 17.0625 85.25 C17.05347656 86.32765625 17.04445312 87.4053125 17.03515625 88.515625 C17.02355469 89.33546875 17.01195312 90.1553125 17 91 C16.01 91 15.02 91 14 91 C13.98582031 90.24976563 13.97164062 89.49953125 13.95703125 88.7265625 C13.5303714 79.57067264 11.57620199 71.97829338 4.6875 65.5625 C-1.94355306 60.51775489 -8.75034659 59.03821775 -17 60 C-23.77466809 61.98567858 -29.48494413 66.20275879 -33.39453125 72.10546875 C-36.61106983 78.52718004 -37.09549365 84.66988308 -35.33984375 91.609375 C-33.23506317 97.6230338 -30.30677091 102.36244976 -25 106 C-21.40914798 107.63088562 -17.78439658 108.89821365 -14 110 C-14 110.99 -14 111.98 -14 113 C-22.15821801 112.56295261 -27.63677949 109.77830974 -33.25 103.8125 C-42.36020272 92.31924698 -41.23138838 77.71241545 -40.86791992 63.86352539 C-40.81201694 61.54244334 -40.78391233 59.22195587 -40.75585938 56.90039062 C-40.72045415 55.41402093 -40.68340504 53.92768927 -40.64453125 52.44140625 C-40.64016556 51.75285049 -40.63579987 51.06429474 -40.63130188 50.35487366 C-40.5116194 46.99123644 -40.21084653 45.26447302 -38.08691406 42.6003418 C-36.04401606 41.03375354 -34.36018975 40.09023922 -31.9375 39.25 C-31.26589844 39.00765625 -30.59429687 38.7653125 -29.90234375 38.515625 C-28 38 -28 38 -25 38 C-24.97421875 37.20078125 -24.9484375 36.4015625 -24.921875 35.578125 C-24.35995729 24.69735481 -22.5127038 13.19072743 -14.26171875 5.34765625 C-9.25575713 0.9428246 -6.85375178 -0.12692133 0 0 Z " fill="#58B75C" transform="translate(233,130)"/>
<path d="M0 0 C1.90652845 1.42989634 3.811672 2.86123196 5.7109375 4.30078125 C7.15213873 5.37061493 8.61368374 6.41406542 10.1015625 7.41796875 C18.35156664 13.10378241 23.28987291 21.40813658 26 31 C26.55352647 34.66536853 26.85919952 38.29694747 27 42 C28.175625 42.37125 29.35125 42.7425 30.5625 43.125 C33.67221396 44.14676316 36.70778578 45.27388652 39.7265625 46.53515625 C40.37939209 46.80634277 41.03222168 47.0775293 41.70483398 47.35693359 C43.00504276 47.90160916 44.30162422 48.45504393 45.59399414 49.01806641 C49.88756007 50.81143109 52.09192985 51 57 51 C57.33 44.07 57.66 37.14 58 30 C60.06850996 31.37900664 62.13664224 32.75858239 64.203125 34.140625 C66.20728578 35.47300004 68.21855347 36.79470879 70.234375 38.109375 C71.31203125 38.81578125 72.3896875 39.5221875 73.5 40.25 C74.5209375 40.91515625 75.541875 41.5803125 76.59375 42.265625 C79 44 79 44 80 46 C78.10807525 46.98669759 76.21128022 47.9640602 74.3125 48.9375 C72.72888672 49.75541016 72.72888672 49.75541016 71.11328125 50.58984375 C62.23001115 54.61350812 52.14703575 54.10708013 43.1328125 50.8046875 C40.78760899 49.85059168 38.45172464 48.87331395 36.125 47.875 C34.87893333 47.36063444 33.63193192 46.84852782 32.3840332 46.33862305 C28.91308254 44.91498661 25.45633834 43.458771 22 42 C19.40076329 40.92443531 16.79590148 39.86583648 14.1875 38.8125 C12.54587891 38.14541016 12.54587891 38.14541016 10.87109375 37.46484375 C7.64676264 36.20723924 4.37939755 35.10229129 1.09765625 34.00390625 C0.05134033 33.65158936 -0.99497559 33.29927246 -2.07299805 32.9362793 C-4.15236515 32.24166554 -6.23578434 31.55903846 -8.32348633 30.88989258 C-9.27376709 30.5730249 -10.22404785 30.25615723 -11.203125 29.9296875 C-12.05551758 29.65366699 -12.90791016 29.37764648 -13.78613281 29.09326172 C-16.42630547 27.78947994 -17.52478293 26.52954568 -19 24 C-18.88041407 18.73821925 -16.46722304 14.52132966 -14 10 C-13.67 10.99 -13.34 11.98 -13 13 C-7.2141641 9.75428718 -3.85270362 5.3345127 0 0 Z " fill="#378172" transform="translate(197,235)"/>
<path d="M0 0 C4.14954336 3.16287416 6.80520433 7.21343692 7.7578125 12.33984375 C8.212662 19.43014475 8.212662 19.43014475 6.7578125 22.33984375 C7.7065625 22.48421875 8.6553125 22.62859375 9.6328125 22.77734375 C12.7578125 23.33984375 12.7578125 23.33984375 14.7578125 24.33984375 C14.4278125 25.65984375 14.0978125 26.97984375 13.7578125 28.33984375 C6.3328125 29.82484375 6.3328125 29.82484375 -1.2421875 31.33984375 C-1.9021875 33.31984375 -2.5621875 35.29984375 -3.2421875 37.33984375 C-3.91752186 38.81374867 -4.62234517 40.27481524 -5.3671875 41.71484375 C-5.72039062 42.40320313 -6.07359375 43.0915625 -6.4375 43.80078125 C-6.70304687 44.30867188 -6.96859375 44.8165625 -7.2421875 45.33984375 C-8.2321875 45.33984375 -9.2221875 45.33984375 -10.2421875 45.33984375 C-11.7271875 37.91484375 -11.7271875 37.91484375 -13.2421875 30.33984375 C-13.9021875 32.31984375 -14.5621875 34.29984375 -15.2421875 36.33984375 C-21.11982703 35.54114012 -24.2966154 32.59286303 -28.2421875 28.33984375 C-31.70216462 22.71738093 -32.36208431 16.78828183 -31.2421875 10.33984375 C-28.86463833 5.06168459 -25.70140333 0.63846094 -20.2421875 -1.66015625 C-13.32048127 -3.6899393 -6.33950332 -3.60607375 0 0 Z " fill="#348E5C" transform="translate(232.2421875,198.66015625)"/>
<path d="M0 0 C3.51521073 0.65096495 5.9774674 2.12890839 9 4 C10.485 4.5878125 10.485 4.5878125 12 5.1875 C17.02402925 8.22285101 19.3204033 12.32386794 20.75390625 17.96875 C21.24652259 20.64196873 21.66777681 23.30254608 22 26 C23.32 26.33 24.64 26.66 26 27 C21.71 27 17.42 27 13 27 C13.309375 28.381875 13.61875 29.76375 13.9375 31.1875 C14.11539063 32.00863281 14.29328125 32.82976562 14.4765625 33.67578125 C14.86970009 35.42142949 15.3258683 37.15307243 15.8125 38.875 C16 41 16 41 14.875 42.8125 C12.38813841 44.38751234 10.8899704 44.44461083 8 44 C6 41 6 41 6.25 38.4375 C7 36 7 36 9 34 C9.6425235 31.93125966 9.6425235 31.93125966 10 30 C9.00987915 30.21934204 9.00987915 30.21934204 7.99975586 30.44311523 C4.97958824 31.11058631 1.9585585 31.77407336 -1.0625 32.4375 C-2.10083984 32.66759766 -3.13917969 32.89769531 -4.20898438 33.13476562 C-9.46113217 34.2852361 -14.66279803 35.34136657 -20 36 C-19.1395861 40.33229715 -19.1395861 40.33229715 -17 44 C-16.95919217 45.99958364 -16.95745644 48.00045254 -17 50 C-17.99 50 -18.98 50 -20 50 C-19.79375 49.21625 -19.5875 48.4325 -19.375 47.625 C-19.25125 46.75875 -19.1275 45.8925 -19 45 C-19.66 44.34 -20.32 43.68 -21 43 C-21.1953125 40.6171875 -21.1953125 40.6171875 -21.125 37.875 C-21.10695312 36.96492188 -21.08890625 36.05484375 -21.0703125 35.1171875 C-21.04710937 34.41851562 -21.02390625 33.71984375 -21 33 C-20.67 33.66 -20.34 34.32 -20 35 C-17.69 34.34 -15.38 33.68 -13 33 C-12.67 30.36 -12.34 27.72 -12 25 C-13.98 24.67 -15.96 24.34 -18 24 C-17.59578333 17.66727211 -15.38709048 13.31157371 -12 8 C-11.62875 7.3709375 -11.2575 6.741875 -10.875 6.09375 C-9.75 4.4375 -9.75 4.4375 -7 2 C-3.93323568 1.51904033 -1.07482351 1.63825606 2 2 C1.34 1.34 0.68 0.68 0 0 Z " fill="#41B33D" transform="translate(232,131)"/>
<path d="M0 0 C3.40920514 2.411389 5.69634878 5.08019755 7.5625 8.8125 C8.24493922 16.18508109 8.32918165 21.94581489 3.5625 27.8125 C-1.23040347 31.55096471 -5.01334862 32.46593382 -11.07421875 32.19921875 C-15.8949045 31.41037926 -18.58174878 28.76076487 -21.75 25.25 C-25.22773708 20.22660199 -25.17179194 14.71983737 -24.4375 8.8125 C-22.8000704 5.03486158 -20.31745308 2.61481016 -17.3125 -0.125 C-11.62154226 -2.22818003 -5.69034151 -1.96575434 0 0 Z " fill="#083464" transform="translate(202.4375,314.1875)"/>
<path d="M0 0 C11.8543626 8.40582075 23.75164268 20.1634216 29 34 C29.625 37.6875 29.625 37.6875 29 41 C26.88081901 43.92945607 26.24015381 44.74990606 23 46 C11.30681818 47.15340909 11.30681818 47.15340909 7 45 C6.24673727 42.51453797 5.62265567 40.09294479 5.0625 37.5625 C4.89137695 36.80767334 4.72025391 36.05284668 4.54394531 35.27514648 C1.96958708 23.64619026 -0.57875832 11.96100525 0 0 Z " fill="#073261" transform="translate(286,221)"/>
<path d="M0 0 C7.20562178 6.53533138 10.32162154 17.62158788 11.3203125 27.01171875 C11.62322126 34.89744341 10.50786435 41.96709738 5.19921875 48.0703125 C-2.31245701 55.04231446 -9.6867423 56.66083229 -19.74609375 56.34765625 C-26.44608389 55.92349078 -32.66016118 54.1332791 -39 52 C-40.23621094 51.5875 -41.47242188 51.175 -42.74609375 50.75 C-56.19553356 45.82367033 -67.72725257 37.96651377 -78 28 C-74.01720127 28 -73.05514651 29.50033467 -70 32 C-68.28825954 32.98266582 -66.57588276 33.96459544 -64.84765625 34.91796875 C-61.74442616 36.73529377 -58.89653474 38.87193366 -56 41 C-55.01 40.505 -55.01 40.505 -54 40 C-51.49442809 40.8491437 -49.07493546 41.76156804 -46.625 42.75 C-32.55648068 48.15904379 -15.46283495 53.07293204 -0.6953125 46.9921875 C2.02117289 45.40235504 3.98072679 43.38641379 6 41 C6.99 40.01 6.99 40.01 8 39 C8.3063859 36.26565038 8.5113336 33.61720179 8.625 30.875 C8.66367187 30.12089844 8.70234375 29.36679687 8.7421875 28.58984375 C8.83651031 26.72696816 8.91934662 24.86351745 9 23 C8.34 23.33 7.68 23.66 7 24 C6.608125 25.216875 6.21625 26.43375 5.8125 27.6875 C4.11049664 32.47545894 1.31552969 35.36878384 -3 38 C-13.78068503 42.27103642 -24.21572934 40.02323009 -35.0625 37.25 C-36.0620874 36.99798828 -37.0616748 36.74597656 -38.09155273 36.48632812 C-43.32098632 35.06475174 -46.93116253 33.70151186 -51 30 C-53.29898987 28.62329496 -55.59289931 27.29218036 -57.9375 26 C-62.42338036 23.51162433 -66.85727568 21.03588958 -71 18 C-71 17.34 -71 16.68 -71 16 C-67.62470755 17.24445565 -64.8567334 18.65760149 -61.9375 20.75 C-55.66008267 25.03675982 -48.53407166 29.47886914 -41 31 C-41 31.66 -41 32.32 -41 33 C-39.16927083 33.45768229 -37.33854167 33.91536458 -35.5078125 34.37304688 C-34.01822917 34.74544271 -32.52864583 35.11783854 -31.0390625 35.49023438 C-29.97558594 35.75610352 -29.97558594 35.75610352 -28.890625 36.02734375 C-26.89174904 36.52706274 -24.89399686 37.02767175 -22.90039062 37.5480957 C-16.04088664 39.17925473 -9.20092997 38.2454756 -3 35 C0.45553951 32.67126685 2.50795284 30.88063143 4 27 C4.83486382 18.74843898 4.52056379 11.41241868 0.875 3.85546875 C0 2 0 2 0 0 Z " fill="#EA4F46" transform="translate(330,234)"/>
<path d="M0 0 C-0.165 0.969375 -0.33 1.93875 -0.5 2.9375 C-2.16080155 15.43069372 1.02826538 26.68984167 5.25 38.375 C7.82784935 45.8446737 8.10676265 52.6214387 5 60 C-1.30511356 57.32834171 -3.62362028 51.17795703 -6.125 45.125 C-8.01273974 40.15445947 -9.60413646 35.12917903 -11 30 C-11.20753906 29.27167969 -11.41507813 28.54335937 -11.62890625 27.79296875 C-13.38836794 20.96428875 -14.81756076 12.66558343 -11.6015625 6.1796875 C-9.72238026 3.62216631 -9.01317031 3.54784915 -6 3 C-1.92 0 -1.92 0 0 0 Z " fill="#EB3643" transform="translate(173,170)"/>
<path d="M0 0 C0.33 0 0.66 0 1 0 C1.03738281 0.63164062 1.07476562 1.26328125 1.11328125 1.9140625 C1.88940679 12.47545715 3.5652634 23.30545953 8 33 C8.51820313 34.13953125 9.03640625 35.2790625 9.5703125 36.453125 C13.33765909 44.86369747 13.33765909 44.86369747 20 51 C22.20180089 51.47581004 22.20180089 51.47581004 24.3125 51.25 C25.529375 51.1675 26.74625 51.085 28 51 C28.33 49.68 28.66 48.36 29 47 C29.66 47 30.32 47 31 47 C31 45.68 31 44.36 31 43 C31.66 43 32.32 43 33 43 C35.61604773 48.12745356 36.67647352 51.23712226 35 57 C32.81388752 60.54329012 30.12966699 63.90685285 26 65 C20.36840176 65.10829997 17.00714355 63.29151939 13.05078125 59.51953125 C0.65503975 44.2904774 -2.45767863 24.04183509 -1 5 C-0.71430738 3.32450944 -0.40601485 1.65046685 0 0 Z " fill="#E76E48" transform="translate(159,180)"/>
<path d="M0 0 C2.65186874 2.76894904 2.69152882 5.87587915 3.01953125 9.53515625 C3.096875 10.23705078 3.17421875 10.93894531 3.25390625 11.66210938 C3.44186174 13.38895043 3.60785602 15.11815678 3.76953125 16.84765625 C2.66049438 16.43253784 2.66049438 16.43253784 1.52905273 16.0090332 C-1.91060724 14.72334155 -5.35167467 13.44146753 -8.79296875 12.16015625 C-10.02394287 11.70044434 -11.25491699 11.24073242 -12.52319336 10.76708984 C-20.18667688 7.92173455 -27.85449103 5.26403465 -35.703125 2.98046875 C-38.23046875 1.84765625 -38.23046875 1.84765625 -39.6015625 -0.28515625 C-39.80910156 -0.90132813 -40.01664063 -1.5175 -40.23046875 -2.15234375 C-26.32506851 -7.66655419 -13.3808264 -6.9130364 0 0 Z " fill="#458386" transform="translate(220.23046875,260.15234375)"/>
<path d="M0 0 C1.32 0 2.64 0 4 0 C4 10.56 4 21.12 4 32 C2.68 32 1.36 32 0 32 C-0.33 31.34 -0.66 30.68 -1 30 C-1.66 30.66 -2.32 31.32 -3 32 C-6.40280249 32.62635656 -9.59871276 32.63105644 -13 32 C-15.87105757 29.89197124 -17.41327792 27.17344416 -19 24 C-19.40710593 19.76609838 -19.25575965 17.48411648 -17.25 13.6875 C-14.08529946 9.90744102 -14.08529946 9.90744102 -11 9 C-6.63371983 8.63614332 -5.04267119 8.97866441 -1 11 C-0.67 7.37 -0.34 3.74 0 0 Z " fill="#E8ECF1" transform="translate(124,313)"/>
<path d="M0 0 C1.32 0 2.64 0 4 0 C4.33 0.66 4.66 1.32 5 2 C5.99 1.34 6.98 0.68 8 0 C12.93507915 -0.44360262 16.22009067 0.36333932 20.0625 3.5 C22.35020983 6.80446975 22.65401202 9.85832975 22.43359375 13.8125 C21.76472732 17.18696127 20.20005391 19.41170128 18 22 C15.63386544 23.18306728 14.13219264 23.13354608 11.5 23.125 C10.7059375 23.12757813 9.911875 23.13015625 9.09375 23.1328125 C7 23 7 23 5 22 C4.67 25.3 4.34 28.6 4 32 C2.68 32 1.36 32 0 32 C0 21.44 0 10.88 0 0 Z " fill="#EAEEF2" transform="translate(411,322)"/>
<path d="M0 0 C0.69416016 0.00515625 1.38832031 0.0103125 2.10351562 0.015625 C5.90078945 0.07332337 9.18187285 0.49887457 12.9375 1.25 C12.2775 6.2 11.6175 11.15 10.9375 16.25 C4.57979611 18.12604377 0.25149404 18.24626107 -6.19921875 16.83203125 C-10.77951371 15.90097538 -15.40687224 15.59219314 -20.0625 15.25 C-19.67265648 9.79219073 -17.90710059 7.09460059 -14.0625 3.25 C-9.36657543 0.33221061 -5.41021035 -0.16164961 0 0 Z " fill="#F69556" transform="translate(197.0625,151.75)"/>
<path d="M0 0 C18.48535016 12.92606169 34.82007717 30.46023152 42 52 C42.17241708 54.43362472 42.26665768 56.87320596 42.3125 59.3125 C42.36857422 61.25576172 42.36857422 61.25576172 42.42578125 63.23828125 C41.81897611 68.59932115 39.48163019 71.55841387 35.6875 75.25 C29.20864017 79.46879245 21.5610392 80.16552122 14.08496094 78.59863281 C9.68286446 77.53720832 5.33819752 76.29567499 1 75 C1 74.67 1 74.34 1 74 C1.89460938 74.09539062 2.78921875 74.19078125 3.7109375 74.2890625 C14.14455954 75.24566324 22.29569248 75.17535817 31.30859375 69.51171875 C34.28957115 66.84742717 35.76469808 64.13489158 36.57421875 60.23046875 C37.08029979 46.63608496 29.7635722 35.62498107 21.6640625 25.234375 C20.15865528 23.2130301 19.03910602 21.28813245 18 19 C17.34 19 16.68 19 16 19 C14.625 17.56640625 14.625 17.56640625 13 15.5625 C8.76099049 10.55276148 3.94473878 6.29804256 -1 2 C-0.67 1.34 -0.34 0.68 0 0 Z " fill="#83366D" transform="translate(293,194)"/>
<path d="M0 0 C3.70390021 2.02666238 5.65363011 3.48044516 8 7 C8.45748511 12.58131831 8.19945613 16.2008158 5 21 C0.64470917 23.74921829 -4.01088551 23.82344608 -9 23 C-12.0625 20.5625 -12.0625 20.5625 -14 18 C-14.33 17.67 -14.66 17.34 -15 17 C-15.54396172 12.18460113 -15.72490311 8.24269105 -13.25 4 C-8.9036735 0.13659867 -5.8964993 -0.60998269 0 0 Z " fill="#E8ECF0" transform="translate(398,322)"/>
<path d="M0 0 C7.60122622 4.40481314 12.19660535 9.82497813 14.87890625 18.171875 C15.41274532 21.00019548 15.37891608 23.69831394 15.34765625 26.57421875 C15.33863281 27.651875 15.32960937 28.72953125 15.3203125 29.83984375 C15.30871094 30.6596875 15.29710937 31.47953125 15.28515625 32.32421875 C14.29515625 32.32421875 13.30515625 32.32421875 12.28515625 32.32421875 C12.27097656 31.57398438 12.25679687 30.82375 12.2421875 30.05078125 C11.81552765 20.89489139 9.86135824 13.30251213 2.97265625 6.88671875 C-3.65839681 1.84197364 -10.46519034 0.3624365 -18.71484375 1.32421875 C-25.48951184 3.30989733 -31.19978788 7.52697754 -35.109375 13.4296875 C-38.32591358 19.85139879 -38.8103374 25.99410183 -37.0546875 32.93359375 C-34.94990692 38.94725255 -32.02161466 43.68666851 -26.71484375 47.32421875 C-23.12399173 48.95510437 -19.49924033 50.2224324 -15.71484375 51.32421875 C-15.71484375 52.31421875 -15.71484375 53.30421875 -15.71484375 54.32421875 C-23.87306176 53.88717136 -29.35162324 51.10252849 -34.96484375 45.13671875 C-40.5809031 38.00156138 -42.49147335 30.51872786 -42.15234375 21.5 C-40.97456364 12.95057832 -36.53798418 7.29340648 -29.95703125 1.953125 C-21.06510899 -4.50668612 -9.86396504 -4.57110575 0 0 Z " fill="#F0F5F4" transform="translate(234.71484375,188.67578125)"/>
<path d="M0 0 C0.33 0 0.66 0 1 0 C1 2.31 1 4.62 1 7 C2.7015625 6.94779297 2.7015625 6.94779297 4.4375 6.89453125 C19.29928462 6.5783581 19.29928462 6.5783581 26 10 C22.71023192 11.09658936 21.28696233 10.79953138 18 10 C17.96261719 10.928125 17.92523438 11.85625 17.88671875 12.8125 C17.45696508 22.19682136 16.68843879 31.52095825 15.7612915 40.86914062 C13.94273667 59.21884464 12.89538157 77.58439623 12 96 C11.67 96 11.34 96 11 96 C10.36755678 73.58340133 12.275588 51.33174694 14 29 C13.39317383 28.85054932 12.78634766 28.70109863 12.16113281 28.54711914 C9.66664724 27.91560737 7.21279849 27.1828206 4.75 26.4375 C3.85796875 26.16808594 2.9659375 25.89867187 2.046875 25.62109375 C1.37140625 25.41613281 0.6959375 25.21117187 0 25 C0.33 24.34 0.66 23.68 1 23 C1.66 23 2.32 23 3 23 C3.2502157 20.08365871 3.2502157 20.08365871 3 17 C2.01 16.34 1.02 15.68 0 15 C-0.22137393 12.37302936 -0.28162025 9.99106036 -0.1875 7.375 C-0.17396484 6.66859375 -0.16042969 5.9621875 -0.14648438 5.234375 C-0.1111104 3.48925872 -0.05730221 1.74453392 0 0 Z " fill="#56B35E" transform="translate(244,151)"/>
<path d="M0 0 C3.36877973 0.58998088 6.32886569 1.42781051 9.46875 2.77734375 C10.28730469 3.12603516 11.10585937 3.47472656 11.94921875 3.83398438 C12.79097656 4.19814453 13.63273438 4.56230469 14.5 4.9375 C16.17694415 5.65527318 17.85402358 6.37273041 19.53125 7.08984375 C20.69720703 7.59040283 20.69720703 7.59040283 21.88671875 8.10107422 C24.24383957 9.10372196 26.61469389 10.06640683 29 11 C28.67 12.32 28.34 13.64 28 15 C20.575 16.485 20.575 16.485 13 18 C12.34 19.98 11.68 21.96 11 24 C10.32466564 25.47390492 9.61984233 26.93497149 8.875 28.375 C8.52179688 29.06335938 8.16859375 29.75171875 7.8046875 30.4609375 C7.53914062 30.96882813 7.27359375 31.47671875 7 32 C6.01 32 5.02 32 4 32 C1.77995082 21.27674358 -0.22925562 11.00426967 0 0 Z " fill="#FAFBFC" transform="translate(218,212)"/>
<path d="M0 0 C0.66 1.32 1.32 2.64 2 4 C1.34773438 3.9071875 0.69546875 3.814375 0.0234375 3.71875 C-5.2644642 3.21852577 -5.2644642 3.21852577 -9.859375 5.46484375 C-14.23732997 11.16295525 -17.40719263 17.9979557 -19 25 C-17.02 25.33 -15.04 25.66 -13 26 C-13.34689507 31.37687366 -13.34689507 31.37687366 -14 34 C-16.52236045 36.01788836 -17.75096951 36 -21 36 C-21.04125 37.27875 -21.0825 38.5575 -21.125 39.875 C-21.14820313 40.59429687 -21.17140625 41.31359375 -21.1953125 42.0546875 C-21.18331689 44.23863645 -21.18331689 44.23863645 -19 46 C-19.3269756 48.61580479 -19.82039068 50.64078137 -21 53 C-25.875 52.125 -25.875 52.125 -27 51 C-27.17500551 47.14987889 -26.80443145 43.75401344 -26 40 C-27.64706553 40.64268437 -29.29262175 41.28923802 -30.9375 41.9375 C-32.31228516 42.47697266 -32.31228516 42.47697266 -33.71484375 43.02734375 C-35.92418533 43.7996218 -35.92418533 43.7996218 -37 45 C-37.22907826 47.06923366 -37.39543552 49.14547477 -37.53515625 51.22265625 C-37.62216797 52.48271484 -37.70917969 53.74277344 -37.79882812 55.04101562 C-37.88681764 56.38150393 -37.97470695 57.72199881 -38.0625 59.0625 C-38.15387529 60.40692976 -38.24566675 61.75133131 -38.33789062 63.09570312 C-38.56270194 66.39687974 -38.7832098 69.69828848 -39 73 C-39.33 73 -39.66 73 -40 73 C-40.11605098 68.41687916 -40.18720362 63.83413551 -40.25 59.25 C-40.28351563 57.94804687 -40.31703125 56.64609375 -40.3515625 55.3046875 C-40.36445313 54.05429688 -40.37734375 52.80390625 -40.390625 51.515625 C-40.41157227 50.36352539 -40.43251953 49.21142578 -40.45410156 48.02441406 C-39.90414507 44.36158558 -38.86533915 43.25953599 -36 41 C-33.96484375 39.953125 -33.96484375 39.953125 -31.9375 39.25 C-31.26589844 39.00765625 -30.59429687 38.7653125 -29.90234375 38.515625 C-28 38 -28 38 -25 38 C-24.97421875 37.20078125 -24.9484375 36.4015625 -24.921875 35.578125 C-24.35995729 24.69735481 -22.5127038 13.19072743 -14.26171875 5.34765625 C-9.25575713 0.9428246 -6.85375178 -0.12692133 0 0 Z " fill="#55C730" transform="translate(233,130)"/>
<path d="M0 0 C3.40920514 2.411389 5.69634878 5.08019755 7.5625 8.8125 C8.24493922 16.18508109 8.32918165 21.94581489 3.5625 27.8125 C-1.23040347 31.55096471 -5.01334862 32.46593382 -11.07421875 32.19921875 C-15.8949045 31.41037926 -18.58174878 28.76076487 -21.75 25.25 C-25.22773708 20.22660199 -25.17179194 14.71983737 -24.4375 8.8125 C-22.8000704 5.03486158 -20.31745308 2.61481016 -17.3125 -0.125 C-11.62154226 -2.22818003 -5.69034151 -1.96575434 0 0 Z M-18.4375 6.8125 C-20.6929616 10.78640853 -20.90430798 14.30002283 -20.4375 18.8125 C-19.12418873 22.16347463 -17.48902505 24.97853186 -14.625 27.25 C-10.13320183 28.40503382 -6.53562148 28.21373669 -2.1875 26.625 C1.0311267 24.5036324 2.18148801 23.41847575 3.5625 19.8125 C4.18893013 15.65021982 4.56415414 11.65999542 2.5078125 7.8671875 C0.11364341 4.93468453 -1.8356433 2.98544382 -5.64453125 2.57421875 C-11.15945284 2.41712203 -14.60305716 2.37892547 -18.4375 6.8125 Z " fill="#EDF0F3" transform="translate(202.4375,314.1875)"/>
<path d="M0 0 C-0.01571045 1.15447632 -0.01571045 1.15447632 -0.03173828 2.33227539 C-1.83490932 29.65058262 -1.83490932 29.65058262 8.53125 53.734375 C13.00223189 57.99446152 18.22135726 60.02340188 24 62 C23.67 62.99 23.34 63.98 23 65 C19.40430331 65.47189365 18.07703332 65.04894929 14.95703125 63.06640625 C13.89939015 62.24379651 12.85134207 61.40872611 11.8125 60.5625 C8.08840641 57.5056969 8.08840641 57.5056969 4 55 C3.62488281 55.53109375 3.24976563 56.0621875 2.86328125 56.609375 C-0.07247241 60.66175033 -2.77968469 64.18645646 -7 67 C-7.66 67 -8.32 67 -9 67 C-8.875 65.25 -8.875 65.25 -8 63 C-6.00669158 61.65668346 -4.00615134 60.32405988 -2 59 C0.60815165 55.88704481 1.03174326 54.59254081 0.8125 50.5 C0.16185772 47.14352679 0.16185772 47.14352679 -1.04296875 44.77734375 C-2.05790996 41.83194293 -2.13649665 39.32126143 -2.12548828 36.2253418 C-2.12362161 27.95690919 -3.63372891 22.32811583 -8.29345703 15.46704102 C-11.00883842 11.44995617 -11.00883842 11.44995617 -10.95703125 8.8125 C-9.79004588 6.6023726 -8.50365715 5.38237553 -6.5625 3.8125 C-5.94503906 3.30332031 -5.32757813 2.79414063 -4.69140625 2.26953125 C-1.66769231 0 -1.66769231 0 0 0 Z " fill="#246772" transform="translate(193,181)"/>
<path d="M0 0 C2.5302323 2.11833402 3.74688068 3.14595624 4.6875 6.25 C4.6875 7.9 4.6875 9.55 4.6875 11.25 C-1.5825 11.25 -7.8525 11.25 -14.3125 11.25 C-12.54398964 14.43074165 -12.54398964 14.43074165 -10.3125 17.25 C-6.78612528 17.40672777 -3.69344149 17.29028969 -0.3125 16.25 C-0.3125 15.59 -0.3125 14.93 -0.3125 14.25 C1.0075 14.25 2.3275 14.25 3.6875 14.25 C2.28160316 17.64758403 0.80240786 19.30250069 -2.3125 21.25 C-5.71464656 21.91383347 -8.9011421 21.85167963 -12.3125 21.25 C-15.65875024 18.72323961 -16.99227847 17.21066458 -18.3125 13.25 C-18.71359454 8.99839783 -18.57628256 6.7493027 -16.5625 2.9375 C-11.92623943 -2.60025568 -6.52345032 -3.44635111 0 0 Z " fill="#EEF1F4" transform="translate(307.3125,323.75)"/>
<path d="M0 0 C3.68623011 1.61272567 4.75355 2.630325 7 6 C7 6.99 7 7.98 7 9 C5.68 9 4.36 9 3 9 C2.46375 8.34 1.9275 7.68 1.375 7 C-2.34294309 3.86910055 -6.32617313 4.67889739 -11 5 C-11 7.31 -11 9.62 -11 12 C-10.26394531 12.18175781 -9.52789062 12.36351562 -8.76953125 12.55078125 C-2.66743834 14.12265459 2.44061088 15.44061088 7 20 C7.33937608 23.00590241 7.57381833 25.10221745 7 28 C3.39550727 31.79933018 0.37596291 32.88721615 -4.8125 33.3125 C-9.16965238 33.26435467 -11.63444177 31.80463186 -15 29 C-17 26 -17 26 -17 23 C-15.68 23 -14.36 23 -13 23 C-11.95374591 24.29735507 -10.95298777 25.63266972 -10 27 C-6.47940432 28.17353189 -3.693507 28.20146402 0 28 C2.28728734 26.16116119 2.28728734 26.16116119 2.125 23.375 C2.08375 22.59125 2.0425 21.8075 2 21 C1.03578125 20.68546875 0.0715625 20.3709375 -0.921875 20.046875 C-2.19812604 19.61520185 -3.47415629 19.18287555 -4.75 18.75 C-5.38421875 18.54503906 -6.0184375 18.34007812 -6.671875 18.12890625 C-10.6733596 16.75339592 -13.38863406 15.36390243 -16 12 C-16.625 8.5625 -16.625 8.5625 -16 5 C-11.51012141 -0.55327089 -6.89984544 -1.07126148 0 0 Z " fill="#ECEFF3" transform="translate(84,313)"/>
<path d="M0 0 C5.48547302 0.04701834 8.37059842 1.37059842 12.25 5.25 C12.25 6.24 12.25 7.23 12.25 8.25 C10.93 8.25 9.61 8.25 8.25 8.25 C7.52683594 7.51523437 7.52683594 7.51523437 6.7890625 6.765625 C5.33889811 5.03929292 5.33889811 5.03929292 3.0234375 4.921875 C1.83621094 4.96054687 1.83621094 4.96054687 0.625 5 C-0.17164063 5.01546875 -0.96828125 5.0309375 -1.7890625 5.046875 C-3.75211257 5.04195019 -3.75211257 5.04195019 -4.75 6.25 C-4.79063832 7.91617115 -4.792721 9.58388095 -4.75 11.25 C-0.39468327 13.15545107 3.9459342 14.89183389 8.453125 16.40625 C10.56570029 17.39824188 11.78466963 18.43726608 13.25 20.25 C13.66223932 24.12504964 13.5668337 27.05056299 11.25 30.25 C7.46204517 33.56446047 3.62001392 33.87625974 -1.23828125 33.73828125 C-5.40694078 32.92788865 -8.22883529 30.61155295 -10.75 27.25 C-11.43359375 25.046875 -11.43359375 25.046875 -11.75 23.25 C-8.51280569 23.60968826 -7.11091691 23.8529914 -4.875 26.3125 C-2.79302767 28.59421334 -2.79302767 28.59421334 0.75 28.625 C3.86332584 28.29142937 5.65424019 27.91128628 8.25 26.25 C7.755 23.775 7.755 23.775 7.25 21.25 C6.44175781 21.00765625 5.63351562 20.7653125 4.80078125 20.515625 C-6.72508731 16.90075669 -6.72508731 16.90075669 -9.75 13.25 C-10.875 9.8125 -10.875 9.8125 -10.75 6.25 C-8.375 3.375 -8.375 3.375 -5.75 1.25 C-4.11069007 -0.38930993 -2.25256326 0.03998633 0 0 Z " fill="#EBEFF2" transform="translate(339.75,312.75)"/>
<path d="M0 0 C0.09796875 0.82242188 0.1959375 1.64484375 0.296875 2.4921875 C1.2917867 9.91971795 2.8461024 16.22104327 6 23 C6.28101563 23.60730957 6.56203125 24.21461914 6.8515625 24.84033203 C8.09981488 27.53548199 9.3507674 30.22898586 10.62573242 32.91162109 C12.89116169 37.68219437 14.13920413 41.21606505 14.125 46.5 C14.12886719 47.93859375 14.12886719 47.93859375 14.1328125 49.40625 C14 52 14 52 13 55 C10.23749964 56.38125018 8.05268901 56.19079306 5 56 C4.34 55.34 3.68 54.68 3 54 C3.33 53.21625 3.66 52.4325 4 51.625 C6.44739777 42.75318307 4.54301877 35.24243705 1.5625 26.75 C-3.17958202 12.8524131 -3.17958202 12.8524131 -3.0625 5.125 C-3.05347656 4.34382812 -3.04445312 3.56265625 -3.03515625 2.7578125 C-3.02355469 2.17773438 -3.01195312 1.59765625 -3 1 C-1 0 -1 0 0 0 Z " fill="#CF1248" transform="translate(174,176)"/>
<path d="M0 0 C2.10554799 0.97757585 3.9591877 1.96903895 5.8125 3.375 C8.13913633 5.10335842 10.58998471 6.47151743 13.1171875 7.8828125 C16.22358353 9.72602674 19.09035569 11.86230214 22 14 C22.66 13.67 23.32 13.34 24 13 C26.50557191 13.8491437 28.92506454 14.76156804 31.375 15.75 C46.78866412 21.67622309 63.13622826 25.67948284 79 19 C79.99 19 80.98 19 82 19 C79.04164456 23.37836605 76.03633914 25.57225277 71 27 C67.55184752 27.41423186 64.15684366 27.41983 60.6875 27.375 C59.80126953 27.38660156 58.91503906 27.39820313 58.00195312 27.41015625 C52.36574116 27.38549011 47.57561413 26.53761604 42.23901367 24.72241211 C40.0375127 24.01210338 37.90380511 23.56893792 35.625 23.1875 C26.67549332 21.22832603 18.96776428 16.19804802 11.5625 11 C10.98346924 10.59716797 10.40443848 10.19433594 9.80786133 9.77929688 C5.87649498 6.93009957 2.98078104 3.8332287 0 0 Z " fill="#DF6C4A" transform="translate(252,261)"/>
<path d="M0 0 C3.97460095 2.97653449 6.31876622 6.0720279 7.28125 10.9921875 C7.53756315 13.4410172 7.70334566 15.85549542 7.7578125 18.31640625 C6.7678125 18.31640625 5.7778125 18.31640625 4.7578125 18.31640625 C4.67144531 17.72472656 4.58507812 17.13304687 4.49609375 16.5234375 C3.27526617 9.65768239 0.94313508 6.81301043 -4.5546875 2.50390625 C-9.57687479 0.28480024 -13.81240853 0.92866958 -18.9296875 2.31640625 C-23.26047548 4.93122164 -25.38730943 7.62609783 -27.2421875 12.31640625 C-28.30300438 17.26688502 -27.66119761 21.19405439 -25.2421875 25.62890625 C-22.31866479 29.84990013 -18.93200685 31.40868313 -14.2421875 33.31640625 C-14.5721875 34.30640625 -14.9021875 35.29640625 -15.2421875 36.31640625 C-21.11982703 35.51770262 -24.2966154 32.56942553 -28.2421875 28.31640625 C-31.70216462 22.69394343 -32.36208431 16.76484433 -31.2421875 10.31640625 C-28.86463833 5.03824709 -25.70140333 0.61502344 -20.2421875 -1.68359375 C-13.33722987 -3.70846529 -6.30315323 -3.6619534 0 0 Z " fill="#F1F6F5" transform="translate(232.2421875,198.68359375)"/>
<path d="M0 0 C1.32 0 2.64 0 4 0 C4 3.63 4 7.26 4 11 C5.32 10.34 6.64 9.68 8 9 C12.05177845 8.38342502 13.6435502 8.78138916 17.171875 10.9453125 C19.11085751 12.63403588 19.90181748 13.57336767 20.48291016 16.09838867 C20.59049744 18.52879057 20.52447154 20.88454569 20.375 23.3125 C20.34792969 24.14845703 20.32085937 24.98441406 20.29296875 25.84570312 C20.22259563 27.89825247 20.11498322 29.94946591 20 32 C18.68 32 17.36 32 16 32 C15.93941406 30.78441406 15.87882812 29.56882812 15.81640625 28.31640625 C15.73201668 26.73175772 15.6473679 25.14712298 15.5625 23.5625 C15.52318359 22.76005859 15.48386719 21.95761719 15.44335938 21.13085938 C15.5945704 17.24760439 15.5945704 17.24760439 14 14 C10.54178598 13.74996036 10.54178598 13.74996036 7 14 C4.06552643 16.93447357 4.53841577 20.18259456 4.375 24.125 C4.33632813 24.87910156 4.29765625 25.63320313 4.2578125 26.41015625 C4.16348969 28.27303184 4.08065338 30.13648255 4 32 C2.68 32 1.36 32 0 32 C0 21.44 0 10.88 0 0 Z " fill="#E4E9EE" transform="translate(358,313)"/>
<path d="M0 0 C2.60900601 6.64558134 3.6143354 12.88515313 4 20 C-2.70774965 22.23591655 -7.758388 20.62804716 -14 18 C-8.72 0 -8.72 0 0 0 Z " fill="#083660" transform="translate(238,139)"/>
<path d="M0 0 C0.66 0 1.32 0 2 0 C3.93344018 3.78954275 4.96251259 6.28773921 5.1875 10.5625 C3.48313 15.49620262 0.58427936 17.6627556 -4 20 C-7.5625 20.75 -7.5625 20.75 -11 20 C-13.58845256 18.23376178 -15.81041587 16.23617103 -18 14 C-16.84826645 11.53199953 -15.95216435 9.95216435 -14 8 C-11.3984375 7.8046875 -11.3984375 7.8046875 -8.375 7.875 C-6.87066406 7.90207031 -6.87066406 7.90207031 -5.3359375 7.9296875 C-4.56507813 7.95289063 -3.79421875 7.97609375 -3 8 C-2.67 6.68 -2.34 5.36 -2 4 C-1.34 4 -0.68 4 0 4 C0 2.68 0 1.36 0 0 Z " fill="#EF6851" transform="translate(190,223)"/>
<path d="M0 0 C1.4391134 0.28359887 2.87625518 0.57721399 4.3125 0.875 C5.11300781 1.03742188 5.91351563 1.19984375 6.73828125 1.3671875 C9 2 9 2 12 4 C11.86722656 5.22074219 11.73445313 6.44148437 11.59765625 7.69921875 C10.58278522 17.12562476 9.6453899 26.5399428 9 36 C8.67 36 8.34 36 8 36 C7.90203125 35.27554688 7.8040625 34.55109375 7.703125 33.8046875 C6.58832215 26.59691045 5.21622907 22.21622907 0 17 C-0.14517744 14.0906442 -0.18630796 11.280054 -0.125 8.375 C-0.11597656 7.57320312 -0.10695313 6.77140625 -0.09765625 5.9453125 C-0.07406223 3.96341477 -0.03819065 1.98167019 0 0 Z " fill="#1B676A" transform="translate(261,160)"/>
<path d="M0 0 C1.64153588 1.40214523 3.28154118 2.80611931 4.9140625 4.21875 C6.32893304 5.42695405 7.7621028 6.61399095 9.2109375 7.78125 C9.92507813 8.3690625 10.63921875 8.956875 11.375 9.5625 C12.37660156 10.36880859 12.37660156 10.36880859 13.3984375 11.19140625 C15.35969239 13.40618921 15.65314873 15.10131436 16 18 C16.33 18 16.66 18 17 18 C17 20.64 17 23.28 17 26 C13.93950965 24.42996122 10.96911715 22.7360655 8 21 C7.12988281 20.53851563 6.25976562 20.07703125 5.36328125 19.6015625 C2.62855971 17.91007068 0.85303576 16.64336667 -1 14 C-1.45996186 9.17833089 -0.90128551 4.74326172 0 0 Z " fill="#2A8259" transform="translate(257,233)"/>
<path d="M0 0 C7.14107267 4.48605847 14.13571183 9.1011913 21 14 C18.43731026 16.56268974 16.20609823 17.05976424 12.75 18.125 C11.63109375 18.47820312 10.5121875 18.83140625 9.359375 19.1953125 C6 20 6 20 0 20 C0 13.4 0 6.8 0 0 Z " fill="#216D66" transform="translate(256,266)"/>
<path d="M0 0 C3.64515103 0.83098271 5.48773668 2.78595164 8.0390625 5.46484375 C8.0390625 6.12484375 8.0390625 6.78484375 8.0390625 7.46484375 C3.1640625 6.58984375 3.1640625 6.58984375 2.0390625 5.46484375 C-0.29391183 5.42391438 -2.62798975 5.42242652 -4.9609375 5.46484375 C-4.9609375 6.45484375 -4.9609375 7.44484375 -4.9609375 8.46484375 C-4.27386719 8.64660156 -3.58679688 8.82835937 -2.87890625 9.015625 C-1.97785156 9.26699219 -1.07679688 9.51835937 -0.1484375 9.77734375 C0.74488281 10.02097656 1.63820312 10.26460938 2.55859375 10.515625 C5.13636678 11.50207988 6.37942486 12.28252802 8.0390625 14.46484375 C8.4765625 17.46484375 8.4765625 17.46484375 8.0390625 20.46484375 C5.18074822 23.21921933 3.03133214 23.91640283 -0.8984375 23.96484375 C-4.87079417 23.85922718 -5.77778992 23.60403591 -9.0859375 21.08984375 C-10.9609375 18.46484375 -10.9609375 18.46484375 -10.9609375 16.46484375 C-6.2109375 17.21484375 -6.2109375 17.21484375 -3.9609375 19.46484375 C0.18415683 19.75086537 0.18415683 19.75086537 4.0390625 18.46484375 C4.0390625 17.80484375 4.0390625 17.14484375 4.0390625 16.46484375 C3.27980469 16.21089844 2.52054688 15.95695312 1.73828125 15.6953125 C0.74441406 15.35113281 -0.24945313 15.00695312 -1.2734375 14.65234375 C-2.25957031 14.31589844 -3.24570313 13.97945313 -4.26171875 13.6328125 C-6.85940648 12.50877686 -8.24624643 11.68251086 -9.9609375 9.46484375 C-10.54099962 6.23306906 -10.25362348 4.91606797 -8.4609375 2.15234375 C-5.60249118 0.22289248 -3.44148558 -0.16111824 0 0 Z " fill="#EBEFF2" transform="translate(152.9609375,321.53515625)"/>
<path d="M0 0 C1.32 0 2.64 0 4 0 C4.33 0.66 4.66 1.32 5 2 C5.99 1.34 6.98 0.68 8 0 C10.15625 -0.1171875 10.15625 -0.1171875 12.5 0.125 C13.2734375 0.18945312 14.046875 0.25390625 14.84375 0.3203125 C17 1 17 1 18.76953125 2.4765625 C20.65334124 6.33986807 20.31647487 10.01697849 20.1875 14.25 C20.16719727 15.51070313 20.16719727 15.51070313 20.14648438 16.796875 C20.11123464 18.86485938 20.0574302 20.93251271 20 23 C19.01 23 18.02 23 17 23 C16.92652344 21.30230469 16.92652344 21.30230469 16.8515625 19.5703125 C16.77653486 18.08851661 16.70098703 16.606747 16.625 15.125 C16.5940625 14.37863281 16.563125 13.63226563 16.53125 12.86328125 C16.44356169 8.46526812 16.44356169 8.46526812 14 5 C10.5 4.66666667 10.5 4.66666667 7 5 C4.06552643 7.93447357 4.53841577 11.18259456 4.375 15.125 C4.33632813 15.87910156 4.29765625 16.63320313 4.2578125 17.41015625 C4.16348969 19.27303184 4.08065338 21.13648255 4 23 C2.68 23 1.36 23 0 23 C0 15.41 0 7.82 0 0 Z " fill="#E8ECF0" transform="translate(264,322)"/>
<path d="M0 0 C2.4375 1.5 2.4375 1.5 4 4 C4.60984064 6.80756825 4.66017005 9.19858274 4 12 C1.42627616 15.02791041 -0.15246594 15.86162709 -4.0625 16.5 C-7 16 -7 16 -9.375 14.5625 C-11.7665182 10.79125976 -11.79851043 7.346531 -11 3 C-8.12184191 -0.79916868 -4.49294484 -0.56161811 0 0 Z " fill="#093564" transform="translate(398,326)"/>
<path d="M0 0 C1 2 1 2 0.44140625 3.76953125 C0.15136719 4.44371094 -0.13867188 5.11789063 -0.4375 5.8125 C-1.7238999 9.02265248 -2.32835824 11.49751214 -2 15 C2.57448268 17.04680357 7.16241337 18.76690608 11.91625977 20.34765625 C20.58071972 23.23398739 29.08241915 26.38875327 37.52734375 29.859375 C38.35306885 30.19833801 39.17879395 30.53730103 40.02954102 30.88653564 C44.18726956 32.59791779 48.33748199 34.32569538 52.48095703 36.07128906 C54.03018792 36.71439876 55.57950077 37.35731104 57.12890625 38 C57.83434067 38.30274841 58.53977509 38.60549683 59.2665863 38.91741943 C63.66000325 40.72756043 66.02474465 41 71 41 C71.33 34.07 71.66 27.14 72 20 C72.33 20 72.66 20 73 20 C73.19645093 23.12450532 73.38063489 26.24961445 73.5625 29.375 C73.64661133 30.70917969 73.64661133 30.70917969 73.73242188 32.0703125 C73.78076172 32.92109375 73.82910156 33.771875 73.87890625 34.6484375 C73.94960327 35.82672119 73.94960327 35.82672119 74.02172852 37.02880859 C74 39 74 39 73 41 C75.08343851 40.52129086 77.16674689 40.04201531 79.25 39.5625 C80.41015625 39.29566406 81.5703125 39.02882813 82.765625 38.75390625 C85.18349761 38.19032 87.59443304 37.61330049 90 37 C85.88118498 41.68285656 80.109487 42.6699763 74.09472656 43.30834961 C65.11285157 43.58253466 58.31615244 41.38952923 50.125 37.875 C48.87893333 37.36063444 47.63193192 36.84852782 46.3840332 36.33862305 C42.91308254 34.91498661 39.45633834 33.458771 36 32 C33.40076329 30.92443531 30.79590148 29.86583648 28.1875 28.8125 C27.09308594 28.36777344 25.99867188 27.92304688 24.87109375 27.46484375 C21.64676264 26.20723924 18.37939755 25.10229129 15.09765625 24.00390625 C14.05134033 23.65158936 13.00502441 23.29927246 11.92700195 22.9362793 C9.84763485 22.24166554 7.76421566 21.55903846 5.67651367 20.88989258 C4.72623291 20.5730249 3.77595215 20.25615723 2.796875 19.9296875 C1.94448242 19.65366699 1.09208984 19.37764648 0.21386719 19.09326172 C-2.42630547 17.78947994 -3.52478293 16.52954568 -5 14 C-4.88041407 8.73821925 -2.46722304 4.52132966 0 0 Z " fill="#4AC52E" transform="translate(183,245)"/>
<path d="M0 0 C6.79305224 -0.22272302 13.42860967 0.09899066 20 2 C20.33 2.66 20.66 3.32 21 4 C20.236875 4.33 19.47375 4.66 18.6875 5 C15.80486961 7.14521331 15.59624434 7.63751886 14.625 10.875 C13.27972491 15.05772314 11.28460715 16.83753939 7.71875 19.28515625 C6 20 6 20 3 19 C3.41153737 14.02906176 3.79600832 9.55491614 6 5 C5.071875 4.7834375 5.071875 4.7834375 4.125 4.5625 C2 4 2 4 0 3 C0 2.01 0 1.02 0 0 Z " fill="#C1354E" transform="translate(179,167)"/>
<path d="M0 0 C1.9453125 0.4453125 1.9453125 0.4453125 4.5078125 2.5078125 C6.39863628 6.37166979 6.13780202 8.34612978 4.9453125 12.4453125 C3.2578125 14.8828125 3.2578125 14.8828125 0.9453125 16.4453125 C-2.65615615 17.04555727 -4.33328154 16.90093732 -7.4296875 14.9453125 C-9.7231267 11.4169445 -9.71742772 8.53920144 -9.0546875 4.4453125 C-7.29525411 0.04672903 -4.58745162 -0.25391799 0 0 Z " fill="#0D3867" transform="translate(424.0546875,325.5546875)"/>
<path d="M0 0 C2.4375 1.5625 2.4375 1.5625 4 4 C4.5625 7.4375 4.5625 7.4375 4 11 C1.875 13.9375 1.875 13.9375 -1 16 C-4.125 16.5 -4.125 16.5 -7 16 C-9.04924606 14.41492052 -9.88670507 13.36837811 -10.65234375 10.87890625 C-11.4124238 4.70455733 -11.4124238 4.70455733 -9.5 1.4375 C-6.0679135 -0.53594974 -3.89762975 -0.55680425 0 0 Z " fill="#0B3766" transform="translate(120,326)"/>
<path d="M0 0 C0.99 0 1.98 0 3 0 C3.33 0.99 3.66 1.98 4 3 C4.350625 2.505 4.70125 2.01 5.0625 1.5 C8.0701582 -0.82850957 10.30687194 -0.44572235 14 0 C16.75329021 1.79562405 18.52627461 3.05254922 20 6 C20.07194869 8.88370333 20.09291708 11.74239664 20.0625 14.625 C20.05798828 15.42679687 20.05347656 16.22859375 20.04882812 17.0546875 C20.03703168 19.03649006 20.01909605 21.01825433 20 23 C18.68 23 17.36 23 16 23 C15.93941406 21.78441406 15.87882813 20.56882812 15.81640625 19.31640625 C15.73201668 17.73175772 15.6473679 16.14712298 15.5625 14.5625 C15.52318359 13.76005859 15.48386719 12.95761719 15.44335938 12.13085938 C15.5945704 8.24760439 15.5945704 8.24760439 14 5 C9.46610434 4.53870399 9.46610434 4.53870399 5.31640625 6.03515625 C3.30834709 9.03234841 3.42681835 12.18935864 3.3125 15.6875 C3.27833984 16.38939453 3.24417969 17.09128906 3.20898438 17.81445312 C3.12670053 19.54241387 3.0616676 21.27118072 3 23 C2.01 23 1.02 23 0 23 C0 15.41 0 7.82 0 0 Z " fill="#E7EBF0" transform="translate(216,322)"/>
<path d="M0 0 C-1.3921875 0.8353125 -1.3921875 0.8353125 -2.8125 1.6875 C-7.05848822 4.76792283 -9.04676017 7.85250491 -10 13 C-9.34 13 -8.68 13 -8 13 C-8 13.99 -8 14.98 -8 16 C-6.02 16.66 -4.04 17.32 -2 18 C-2.15597656 18.65226562 -2.31195313 19.30453125 -2.47265625 19.9765625 C-3.58490411 24.97062904 -4.3320153 28.93834187 -3 34 C-4.485 34.495 -4.485 34.495 -6 35 C-6.99 32.03 -7.98 29.06 -9 26 C-9.99 26 -10.98 26 -12 26 C-12.02721176 24.10424749 -12.04649136 22.20838021 -12.0625 20.3125 C-12.07410156 19.25675781 -12.08570313 18.20101562 -12.09765625 17.11328125 C-12.00865425 14.27589738 -11.64939838 11.7561081 -11 9 C-14.60296594 8.58823246 -15.78402067 8.8464147 -18.8125 11 C-19.8953125 11.99 -19.8953125 11.99 -21 13 C-17.8739967 5.99292013 -11.80050763 2.5911354 -5.015625 -0.43359375 C-3 -1 -3 -1 0 0 Z " fill="#B14554" transform="translate(187,154)"/>
<path d="M0 0 C0.33 0 0.66 0 1 0 C1 2.31 1 4.62 1 7 C2.7015625 6.94779297 2.7015625 6.94779297 4.4375 6.89453125 C19.29928462 6.5783581 19.29928462 6.5783581 26 10 C22.71023192 11.09658936 21.28696233 10.79953138 18 10 C17.96261719 10.928125 17.92523438 11.85625 17.88671875 12.8125 C17.45696508 22.19682136 16.68843879 31.52095825 15.7612915 40.86914062 C13.94273667 59.21884464 12.89538157 77.58439623 12 96 C11.67 96 11.34 96 11 96 C10.56861712 80.56607911 11.31366056 65.32377854 12.4375 49.9375 C12.50498444 49.00536682 12.57246887 48.07323364 12.64199829 47.112854 C12.83905545 44.4173396 13.04110802 41.72226602 13.24609375 39.02734375 C13.33680649 37.81755608 13.33680649 37.81755608 13.42935181 36.58332825 C13.78757332 32.02200439 14.3377288 27.52931797 15 23 C15.08710654 20.70961037 15.13029339 18.41703931 15.125 16.125 C15.12757813 14.99320313 15.13015625 13.86140625 15.1328125 12.6953125 C15.30643078 10.08261439 15.30643078 10.08261439 14 9 C11.98035801 8.92755947 9.95832876 8.91622812 7.9375 8.9375 C6.83277344 8.94652344 5.72804687 8.95554688 4.58984375 8.96484375 C3.73519531 8.97644531 2.88054687 8.98804688 2 9 C1.67 10.98 1.34 12.96 1 15 C0.67 15 0.34 15 0 15 C0 10.05 0 5.1 0 0 Z " fill="#4FCF2C" transform="translate(244,151)"/>
<path d="M0 0 C0.66 0.66 1.32 1.32 2 2 C1.46890625 2.40089844 0.9378125 2.80179688 0.390625 3.21484375 C-6.1736797 8.49743202 -9.10740557 13.86000649 -11 22 C-13.31 21.67 -15.62 21.34 -18 21 C-17.5246278 13.55250215 -14.58836651 7.07073915 -9.0625 1.9375 C-5.64008169 -0.22770342 -3.96971916 -0.63154623 0 0 Z " fill="#09375F" transform="translate(232,134)"/>
<path d="M0 0 C0 1.32 0 2.64 0 4 C-9.53837883 10.06987744 -17.08874542 10.74772557 -28 10 C-28.33 8.68 -28.66 7.36 -29 6 C-26.1047827 5.18525038 -23.20887172 4.37312678 -20.3125 3.5625 C-19.49587891 3.33240234 -18.67925781 3.10230469 -17.83789062 2.86523438 C-11.7764225 1.17194976 -6.34135753 -0.14747343 0 0 Z " fill="#74CA6E" transform="translate(242,161)"/>
<path d="M0 0 C6.36579923 4.2675749 10.82906905 9.58010456 13 17 C13.37241035 21.37219422 13.30850986 25.62601573 13 30 C13.66 30 14.32 30 15 30 C15 30.66 15 31.32 15 32 C13.35 31.34 11.7 30.68 10 30 C9.97421875 29.154375 9.9484375 28.30875 9.921875 27.4375 C9.46610777 18.3221554 8.46952029 11.90000536 1.5625 5.625 C-3.30990101 1.57785485 -7.72724371 0.72296226 -14 0.75 C-15.19625 0.74484375 -16.3925 0.7396875 -17.625 0.734375 C-20.85804974 0.98882799 -23.09417459 1.61312878 -26 3 C-25 0 -25 0 -22.0625 -1.6875 C-14.80343678 -4.49889948 -6.7470787 -3.8011711 0 0 Z " fill="#327B72" transform="translate(234,192)"/>
<path d="M0 0 C0.02724423 2.83339965 0.04695589 5.66653117 0.0625 8.5 C0.07087891 9.29148438 0.07925781 10.08296875 0.08789062 10.8984375 C0.10891185 16.02761717 -0.26062713 20.92336106 -1 26 C-3.91367217 23.40107636 -5.7535549 20.39953323 -7.75 17.0625 C-8.38421875 16.02222656 -9.0184375 14.98195312 -9.671875 13.91015625 C-11 11 -11 11 -10.91796875 8.8203125 C-9.78744391 6.57850579 -8.51153825 5.38874923 -6.5625 3.8125 C-5.94503906 3.30332031 -5.32757813 2.79414063 -4.69140625 2.26953125 C-1.66769231 0 -1.66769231 0 0 0 Z " fill="#0A3261" transform="translate(193,181)"/>
<path d="M0 0 C0.33 0.66 0.66 1.32 1 2 C0.69835937 2.59296875 0.39671875 3.1859375 0.0859375 3.796875 C-2.21750738 8.47005095 -1.76809976 14.4076633 -0.3125 19.3203125 C1.87600523 24.11678647 4.64271179 27.06549978 9 30 C10.65 30.33 12.3 30.66 14 31 C14.33 27.37 14.66 23.74 15 20 C15.33 20 15.66 20 16 20 C16.50196571 22.95801222 17.00165835 25.91637705 17.5 28.875 C17.64308594 29.71675781 17.78617188 30.55851562 17.93359375 31.42578125 C18.06894531 32.23144531 18.20429688 33.03710938 18.34375 33.8671875 C18.46943359 34.61081543 18.59511719 35.35444336 18.72460938 36.12060547 C19 38 19 38 19 40 C18.01 40 17.02 40 16 40 C16 39.01 16 38.02 16 37 C15.37351563 36.86722656 14.74703125 36.73445313 14.1015625 36.59765625 C13.28429687 36.42105469 12.46703125 36.24445313 11.625 36.0625 C10.81289062 35.88847656 10.00078125 35.71445313 9.1640625 35.53515625 C6.16560212 34.79365973 5.26743949 34.43762826 3.625 31.75 C3.08875 30.8425 2.5525 29.935 2 29 C1.319375 28.154375 0.63875 27.30875 -0.0625 26.4375 C-4.8645228 20.3962455 -4.78671929 14.53786853 -4 7 C-2.95608963 4.20413571 -1.79828038 2.41643926 0 0 Z " fill="#297270" transform="translate(203,203)"/>
<path d="M0 0 C5.47526792 1.71773111 8.15443784 3.57657462 11 8.59375 C12.79054551 12.90225014 13.43240571 17.39147321 14 22 C15.32 22.33 16.64 22.66 18 23 C13.71 23 9.42 23 5 23 C4.87625 21.329375 4.7525 19.65875 4.625 17.9375 C4.04829788 9.77292326 4.04829788 9.77292326 0 3 C0 2.01 0 1.02 0 0 Z " fill="#3FB236" transform="translate(240,135)"/>
<path d="M0 0 C1.6167707 3.23354139 1.47631929 5.42760535 1 9 C-0.59234945 10.69296494 -2.31646036 11.98724416 -4.17578125 13.37890625 C-7.21131886 16.07643967 -8.40832877 19.30732275 -10 23 C-10.33 23 -10.66 23 -11 23 C-11.27990605 15.10042938 -10.51537186 7.7527507 -9 0 C-2.25 -1.125 -2.25 -1.125 0 0 Z " fill="#175E6F" transform="translate(283,164)"/>
<path d="M0 0 C1.32 0 2.64 0 4 0 C4 9.24 4 18.48 4 28 C5.65 28 7.3 28 9 28 C9 29.32 9 30.64 9 32 C6.03 32 3.06 32 0 32 C0 21.44 0 10.88 0 0 Z " fill="#DFE4EB" transform="translate(242,313)"/>
<path d="M0 0 C0.99 0.66 1.98 1.32 3 2 C2.29875 2.5775 1.5975 3.155 0.875 3.75 C-3.34380993 7.92045681 -5.6860411 13.61666606 -8 19 C-8 19.66 -8 20.32 -8 21 C-5.36 21.99 -2.72 22.98 0 24 C0 24.33 0 24.66 0 25 C-1.81230433 25.33439553 -3.6248491 25.66748824 -5.4375 26 C-6.44683594 26.185625 -7.45617187 26.37125 -8.49609375 26.5625 C-11 27 -11 27 -12 27 C-12.6976178 18.84562302 -11.77911136 12.77829409 -7 6 C-4.78138161 3.70345493 -2.57405014 1.91791971 0 0 Z " fill="#41B736" transform="translate(233,136)"/>
<path d="M0 0 C0.69416016 0.00515625 1.38832031 0.0103125 2.10351562 0.015625 C5.82438382 0.07216241 9.31907435 0.3753708 12.9375 1.25 C12.6075 2.9 12.2775 4.55 11.9375 6.25 C10.82955078 6.12431641 10.82955078 6.12431641 9.69921875 5.99609375 C0.54964173 5.07764828 -8.39079568 4.73444419 -17.0625 8.25 C-17.0625 8.91 -17.0625 9.57 -17.0625 10.25 C-17.7225 9.92 -18.3825 9.59 -19.0625 9.25 C-13.73863127 2.20370315 -9.03847594 -0.27005717 0 0 Z " fill="#F69449" transform="translate(197.0625,151.75)"/>
<path d="M0 0 C3.95185643 5.92778464 3.59485306 13.08591081 3 20 C1.30582419 27.61839567 -2.44089258 32.78742164 -9 37 C-20.2814661 42.7009544 -32.34735115 40.41043059 -43.98828125 37.0703125 C-47 36 -47 36 -50 34 C-46.5007169 34.42848364 -43.262276 34.91389929 -39.90625 36.015625 C-35.16812212 37.39676437 -30.46636307 37.36802933 -25.5625 37.375 C-24.20801758 37.41173828 -24.20801758 37.41173828 -22.82617188 37.44921875 C-15.43941819 37.48131181 -10.526104 35.69818431 -4.6875 31.23046875 C2.55680114 22.46016899 0.60908171 10.70645167 0 0 Z " fill="#BE454C" transform="translate(338,250)"/>
<path d="M0 0 C2.46948242 1.53808594 2.46948242 1.53808594 5 4 C5.56762695 7.39160156 5.56762695 7.39160156 5.48828125 11.390625 C5.48120651 12.09523865 5.47413177 12.79985229 5.46684265 13.52581787 C5.43893357 15.76830891 5.37621287 18.00826871 5.3125 20.25 C5.28741211 21.77340134 5.26459978 23.29684197 5.24414062 24.8203125 C5.18912213 28.54769249 5.10287804 32.27359906 5 36 C2.53051758 34.46191406 2.53051758 34.46191406 0 32 C-0.56762695 28.60839844 -0.56762695 28.60839844 -0.48828125 24.609375 C-0.48120651 23.90476135 -0.47413177 23.20014771 -0.46684265 22.47418213 C-0.43893357 20.23169109 -0.37621287 17.99173129 -0.3125 15.75 C-0.28741211 14.22659866 -0.26459978 12.70315803 -0.24414062 11.1796875 C-0.18912213 7.45230751 -0.10287804 3.72640094 0 0 Z " fill="#7F235D" transform="translate(285,188)"/>
<path d="M0 0 C7.15242388 5.77695775 12.7889442 11.25879255 16 20 C14.41531323 19.54636829 12.83230076 19.08688548 11.25 18.625 C9.92742187 18.24214844 9.92742187 18.24214844 8.578125 17.8515625 C3.80983985 16.27658347 3.80983985 16.27658347 2 15 C1.171875 12.5390625 1.171875 12.5390625 0.75 9.625 C0.60046875 8.66851562 0.4509375 7.71203125 0.296875 6.7265625 C0 4 0 4 0 0 Z " fill="#2A6583" transform="translate(222,262)"/>
<path d="M0 0 C-0.33 7.26 -0.66 14.52 -1 22 C-1.33 22 -1.66 22 -2 22 C-2.33 19.36 -2.66 16.72 -3 14 C-3.33 14 -3.66 14 -4 14 C-3.67 11.69 -3.34 9.38 -3 7 C-3.9075 7.639375 -4.815 8.27875 -5.75 8.9375 C-9 11 -9 11 -11.25 11.5 C-13.22926762 11.85101127 -13.22926762 11.85101127 -14.25 14.0625 C-14.62125 15.0215625 -14.62125 15.0215625 -15 16 C-15.33 15.34 -15.66 14.68 -16 14 C-13.15367219 5.9991283 -9.3379626 -1.86759252 0 0 Z " fill="#C2404E" transform="translate(176,163)"/>
<path d="M0 0 C1.4386494 0.06032073 2.87611902 0.14920133 4.3125 0.25 C5.51326172 0.31960938 5.51326172 0.31960938 6.73828125 0.390625 C9 1 9 1 10.78125 2.46875 C12.6448339 6.33927042 12.31644709 10.01789051 12.1875 14.25 C12.17396484 15.09046875 12.16042969 15.9309375 12.14648438 16.796875 C12.11123464 18.86485938 12.0574302 20.93251271 12 23 C11.01 23 10.02 23 9 23 C8.92652344 21.30230469 8.92652344 21.30230469 8.8515625 19.5703125 C8.77653486 18.08851661 8.70098703 16.606747 8.625 15.125 C8.5940625 14.37863281 8.563125 13.63226563 8.53125 12.86328125 C8.44356169 8.46526812 8.44356169 8.46526812 6 5 C3.31160615 4.73008094 0.70858064 4.91262643 -2 5 C-1.34 3.35 -0.68 1.7 0 0 Z " fill="#F0F3F6" transform="translate(272,322)"/>
<path d="M0 0 C0.99773437 0.02320313 1.99546875 0.04640625 3.0234375 0.0703125 C4.52777344 0.09738281 4.52777344 0.09738281 6.0625 0.125 C6.83335937 0.14820313 7.60421875 0.17140625 8.3984375 0.1953125 C7.55796671 4.0980927 6.26281404 6.33093596 3.3984375 9.1953125 C0.3984375 10.2578125 0.3984375 10.2578125 -2.6015625 10.1953125 C-4.9765625 8.2578125 -4.9765625 8.2578125 -6.6015625 6.1953125 C-3.84513096 0.2886735 -3.84513096 0.2886735 0 0 Z " fill="#EF524E" transform="translate(178.6015625,230.8046875)"/>
<path d="M0 0 C0.33 0 0.66 0 1 0 C1 3.96 1 7.92 1 12 C0.01 12 -0.98 12 -2 12 C-1.34 10.35 -0.68 8.7 0 7 C-0.99012085 7.21934204 -0.99012085 7.21934204 -2.00024414 7.44311523 C-5.02041176 8.11058631 -8.0414415 8.77407336 -11.0625 9.4375 C-12.10083984 9.66759766 -13.13917969 9.89769531 -14.20898438 10.13476562 C-19.46113217 11.2852361 -24.66279803 12.34136657 -30 13 C-29.1395861 17.33229715 -29.1395861 17.33229715 -27 21 C-26.95919217 22.99958364 -26.95745644 25.00045254 -27 27 C-27.99 27 -28.98 27 -30 27 C-29.79375 26.21625 -29.5875 25.4325 -29.375 24.625 C-29.25125 23.75875 -29.1275 22.8925 -29 22 C-29.66 21.34 -30.32 20.68 -31 20 C-31.1953125 17.6171875 -31.1953125 17.6171875 -31.125 14.875 C-31.10695312 13.96492187 -31.08890625 13.05484375 -31.0703125 12.1171875 C-31.04710937 11.41851562 -31.02390625 10.71984375 -31 10 C-30.67 10.66 -30.34 11.32 -30 12 C-27.69 11.34 -25.38 10.68 -23 10 C-22.67 7.36 -22.34 4.72 -22 2 C-21.67 2 -21.34 2 -21 2 C-20.67 3.98 -20.34 5.96 -20 8 C-19.31035156 7.86722656 -18.62070313 7.73445312 -17.91015625 7.59765625 C-11.94679588 6.47696987 -6.03851471 5.59395227 0 5 C0 3.35 0 1.7 0 0 Z " fill="#5DD22B" transform="translate(242,154)"/>
<path d="M0 0 C2.96845667 0.62581269 4.35269589 2.0190701 6.09375 4.44140625 C5.76375 5.43140625 5.43375 6.42140625 5.09375 7.44140625 C4.413125 6.92578125 3.7325 6.41015625 3.03125 5.87890625 C-0.70743832 4.04933537 -2.91068413 4.57961753 -6.90625 5.44140625 C-7.66798392 9.75789845 -8.06688604 13.18574078 -6.90625 17.44140625 C-10.78125 15.69140625 -10.78125 15.69140625 -11.90625 13.44140625 C-12.58913206 6.49877201 -12.58913206 6.49877201 -9.96875 2.44140625 C-6.37020175 0.09133392 -4.21679161 -0.21786757 0 0 Z " fill="#F0F6F5" transform="translate(222.90625,205.55859375)"/>
<path d="M0 0 C1.32 0 2.64 0 4 0 C4 7.59 4 15.18 4 23 C2.68 23 1.36 23 0 23 C0 15.41 0 7.82 0 0 Z " fill="#E4E9EE" transform="translate(254,322)"/>
<path d="M0 0 C5.68005854 1.20664456 10.09598982 4.78486303 13.32421875 9.48046875 C14.31598331 12.65411534 14.49778722 15.17551021 14.26171875 18.48046875 C15.25171875 18.48046875 16.24171875 18.48046875 17.26171875 18.48046875 C16.93171875 19.47046875 16.60171875 20.46046875 16.26171875 21.48046875 C14.3515625 21.27734375 14.3515625 21.27734375 12.26171875 20.48046875 C11.390625 18.37109375 11.390625 18.37109375 10.82421875 15.73046875 C9.57748946 11.0384768 8.26603506 8.46042507 4.26171875 5.48046875 C-0.14808698 3.46729657 -3.92596032 3.28797591 -8.73828125 3.48046875 C-6.51754105 0.14935845 -3.86666717 -0.15009244 0 0 Z " fill="#2D7573" transform="translate(222.73828125,198.51953125)"/>
<path d="M0 0 C3.37529245 1.24445565 6.1432666 2.65760149 9.0625 4.75 C15.33991733 9.03675982 22.46592834 13.47886914 30 15 C30 15.66 30 16.32 30 17 C35.28 18.32 40.56 19.64 46 21 C46 21.33 46 21.66 46 22 C37.23895099 21.60446731 26.29986604 20.57031484 20 14 C17.74519932 12.63591561 15.4945022 11.33074728 13.1875 10.0625 C8.65932681 7.55436565 4.1790448 5.06548615 0 2 C0 1.34 0 0.68 0 0 Z " fill="#CE554C" transform="translate(259,250)"/>
<path d="M0 0 C2.64 0.33 5.28 0.66 8 1 C7.84402344 1.65226563 7.68804687 2.30453125 7.52734375 2.9765625 C6.41509589 7.97062904 5.6679847 11.93834187 7 17 C6.01 17.33 5.02 17.66 4 18 C-0.59225513 6.66287016 -0.59225513 6.66287016 0 0 Z " fill="#991B56" transform="translate(177,171)"/>
<path d="M0 0 C3.34019306 0.59646305 5.50470633 1.68294159 8 4 C8 4.99 8 5.98 8 7 C8.99 7.33 9.98 7.66 11 8 C11.33 11.63 11.66 15.26 12 19 C11.01 19.33 10.02 19.66 9 20 C8.49440092 18.56445975 7.9957251 17.1264798 7.5 15.6875 C7.2215625 14.88699219 6.943125 14.08648437 6.65625 13.26171875 C6 11 6 11 6 8 C5.01 7.67 4.02 7.34 3 7 C2.67 6.01 2.34 5.02 2 4 C-1.3 4 -4.6 4 -8 4 C-7.67 3.34 -7.34 2.68 -7 2 C-4.03 2 -1.06 2 2 2 C1.34 1.34 0.68 0.68 0 0 Z " fill="#49C72D" transform="translate(232,131)"/>
<path d="M0 0 C0.99 0 1.98 0 3 0 C3.33 0.99 3.66 1.98 4 3 C5.32 2.34 6.64 1.68 8 1 C7.35791218 4.72410936 7.35791218 4.72410936 5.5 6.15625 C3.18506458 9.00169145 3.42761386 12.16501592 3.3125 15.6875 C3.27833984 16.38939453 3.24417969 17.09128906 3.20898438 17.81445312 C3.12670053 19.54241387 3.0616676 21.27118072 3 23 C2.01 23 1.02 23 0 23 C0 15.41 0 7.82 0 0 Z " fill="#F8F9FA" transform="translate(216,322)"/>
<path d="M0 0 C2.4375 0.8125 2.4375 0.8125 4.4375 2.8125 C3.86931818 8.38068182 3.86931818 8.38068182 2.4375 9.8125 C-0.5 10 -0.5 10 -3.5625 9.8125 C-5.5625 7.8125 -5.5625 7.8125 -5.875 5.375 C-5.5625 2.8125 -5.5625 2.8125 -4.375 0.9375 C-2.5625 -0.1875 -2.5625 -0.1875 0 0 Z " fill="#577596" transform="translate(306.5625,358.1875)"/>
<path d="M0 0 C2.3125 0.8125 2.3125 0.8125 3.3125 1.8125 C3.5 4.75 3.5 4.75 3.3125 7.8125 C2.6525 8.4725 1.9925 9.1325 1.3125 9.8125 C-2.3125 9.4375 -2.3125 9.4375 -5.6875 8.8125 C-6.4375 6.5625 -6.4375 6.5625 -6.6875 3.8125 C-4.61948351 0.79001437 -3.73218171 -0.26038477 0 0 Z " fill="#567495" transform="translate(248.6875,358.1875)"/>
<path d="M0 0 C0.81791016 0.19916016 0.81791016 0.19916016 1.65234375 0.40234375 C7.09902987 1.67789247 12.43120352 2.46963843 18 3 C11.95382689 6.14619868 5.91152768 8.53165598 -1 8 C-0.67 5.36 -0.34 2.72 0 0 Z " fill="#2B8855" transform="translate(257,278)"/>
<path d="M0 0 C2.4375 1.875 2.4375 1.875 4 4 C4 4.66 4 5.32 4 6 C-0.95 6 -5.9 6 -11 6 C-8.34483033 -0.63792418 -6.87649586 -0.59280137 0 0 Z " fill="#19436F" transform="translate(304,326)"/>
<path d="M0 0 C3.40249921 0.77600859 5.12354729 1.37354729 7.5625 3.8125 C7.5625 4.4725 7.5625 5.1325 7.5625 5.8125 C3.6132432 5.26144091 0.21329826 4.42314629 -3.4375 2.8125 C-3.4375 6.1125 -3.4375 9.4125 -3.4375 12.8125 C-4.0975 12.8125 -4.7575 12.8125 -5.4375 12.8125 C-7.34118048 10.01296988 -7.42934124 8.65476401 -7.25 5.1875 C-6.12115982 0.49847156 -4.77154093 -0.26026587 0 0 Z " fill="#328565" transform="translate(221.4375,209.1875)"/>
<path d="M0 0 C1.98073365 0.280828 3.95958448 0.57496614 5.9375 0.875 C7.59072266 1.11863281 7.59072266 1.11863281 9.27734375 1.3671875 C10.17582031 1.57601562 11.07429687 1.78484375 12 2 C12.33 2.66 12.66 3.32 13 4 C11.8553125 4.61875 11.8553125 4.61875 10.6875 5.25 C8.0633358 6.95875809 6.69678024 8.41017753 5 11 C0.21484375 7.6796875 0.21484375 7.6796875 -1 6 C-0.68359375 2.8203125 -0.68359375 2.8203125 0 0 Z " fill="#E65146" transform="translate(187,167)"/>
<path d="M0 0 C2.10554799 0.97757585 3.9591877 1.96903895 5.8125 3.375 C8.07003834 5.12833744 8.07003834 5.12833744 11.0625 6.6875 C15.42559315 9.11877005 19.35453479 12.11420147 23.3515625 15.09765625 C25.83370647 16.88055317 28.35706936 18.46862683 31 20 C30.34 20.33 29.68 20.66 29 21 C22.69234847 18.84966425 17.10119227 14.86565453 11.6875 11.0625 C11.10129883 10.65604248 10.51509766 10.24958496 9.91113281 9.83081055 C5.93236276 6.96475699 3.00643964 3.87509199 0 0 Z " fill="#DB6149" transform="translate(252,261)"/>
<path d="M0 0 C2.31 0.33 4.62 0.66 7 1 C6.65310493 6.37687366 6.65310493 6.37687366 6 9 C3.47763955 11.01788836 2.24903049 11 -1 11 C-0.67 7.37 -0.34 3.74 0 0 Z " fill="#EB8651" transform="translate(213,155)"/>
<path d="M0 0 C0.99 0 1.98 0 3 0 C3 7.59 3 15.18 3 23 C2.01 23 1.02 23 0 23 C0 15.41 0 7.82 0 0 Z " fill="#F9FAFB" transform="translate(97,322)"/>
<path d="M0 0 C0.33 0 0.66 0 1 0 C1.04898438 1.05960938 1.09796875 2.11921875 1.1484375 3.2109375 C1.22346709 4.59898497 1.29901485 5.98700451 1.375 7.375 C1.4059375 8.07367188 1.436875 8.77234375 1.46875 9.4921875 C1.59499498 13.70185827 1.59499498 13.70185827 4 17 C3.625 19.625 3.625 19.625 3 22 C1.125 22.625 1.125 22.625 -1 23 C-1.66 22.34 -2.32 21.68 -3 21 C-2.84320425 18.33447223 -2.57885235 15.81916877 -2.1875 13.1875 C-2.09146484 12.47529297 -1.99542969 11.76308594 -1.89648438 11.02929688 C-1.38592403 7.32516443 -0.78296672 3.65623907 0 0 Z " fill="#38A345" transform="translate(210,159)"/>
<path d="M0 0 C1.85776765 3.13498292 2.20140476 5.37471432 2 9 C4.64 9.99 7.28 10.98 10 12 C10 12.33 10 12.66 10 13 C8.18769567 13.33439553 6.3751509 13.66748824 4.5625 14 C3.55316406 14.185625 2.54382813 14.37125 1.50390625 14.5625 C-1 15 -1 15 -2 15 C-2.05429959 13.25034642 -2.09292823 11.50020213 -2.125 9.75 C-2.15980469 8.28820312 -2.15980469 8.28820312 -2.1953125 6.796875 C-1.99862781 3.9803502 -1.44568916 2.39050964 0 0 Z " fill="#48C031" transform="translate(223,148)"/>
<path d="M0 0 C2.5625718 -0.02710123 5.12485365 -0.04688771 7.6875 -0.0625 C8.40873047 -0.07087891 9.12996094 -0.07925781 9.87304688 -0.08789062 C13.71555382 -0.10543632 17.26639526 0.06475779 21 1 C20.67 2.65 20.34 4.3 20 6 C14.555 5.505 14.555 5.505 9 5 C9 4.01 9 3.02 9 2 C6.03 1.67 3.06 1.34 0 1 C0 0.67 0 0.34 0 0 Z " fill="#D9824B" transform="translate(189,152)"/>
<path d="M0 0 C4.84202234 4.07749249 5.94545362 6.96032526 7 13 C7 14.32 7 15.64 7 17 C5.35 17 3.7 17 2 17 C1.93941406 16.27554688 1.87882813 15.55109375 1.81640625 14.8046875 C1.38516567 9.82883467 0.92952359 4.91319609 0 0 Z " fill="#093C5D" transform="translate(243,141)"/>
<path d="M0 0 C-2 3 -2 3 -4.20703125 3.51953125 C-5.06683594 3.61621094 -5.92664063 3.71289062 -6.8125 3.8125 C-10.64974275 4.45111493 -12.64717747 5.07592156 -15.125 8.125 C-15.74375 9.07375 -16.3625 10.0225 -17 11 C-17.66 10.34 -18.32 9.68 -19 9 C-16.68150422 3.38679969 -16.68150422 3.38679969 -13.6875 1.6875 C-9.0776861 0.50824528 -4.76393951 -0.14011587 0 0 Z " fill="#286C76" transform="translate(247,227)"/>
<path d="M0 0 C2.75967503 2.75967503 2.61765689 5.59881558 3 9.3125 C3.47168289 13.81532461 4.07360259 17.85021891 6 22 C5.01 22.33 4.02 22.66 3 23 C0.29827355 17.60363825 -0.40128581 13.55398437 -0.1875 7.5625 C-0.17396484 6.83095703 -0.16042969 6.09941406 -0.14648438 5.34570312 C-0.11153874 3.56347578 -0.05774805 1.78163427 0 0 Z " fill="#835162" transform="translate(191,207)"/>
<path d="M0 0 C0.33 0.66 0.66 1.32 1 2 C3.52733235 2.65555119 3.52733235 2.65555119 6 3 C6.66 2.01 7.32 1.02 8 0 C8.6875 2.3125 8.6875 2.3125 9 5 C7.875 6.8125 7.875 6.8125 6 8 C3.4375 8.375 3.4375 8.375 1 8 C-1 5 -1 5 -0.625 2.3125 C-0.41875 1.549375 -0.2125 0.78625 0 0 Z " fill="#4BC732" transform="translate(239,167)"/>
<path d="M0 0 C1.2065625 0.0309375 1.2065625 0.0309375 2.4375 0.0625 C4.4375 7.6875 4.4375 7.6875 4.4375 11.0625 C3.81875 10.3509375 3.81875 10.3509375 3.1875 9.625 C1.255315 7.89983482 -0.04442275 7.49665125 -2.5625 7.0625 C-2.94383299 5.0710944 -3.27575582 3.06970923 -3.5625 1.0625 C-2.5625 0.0625 -2.5625 0.0625 0 0 Z " fill="#F49448" transform="translate(237.5625,232.9375)"/>
<path d="M0 0 C3.78557977 0.86527538 5.60226339 2.39423511 7.75 5.5 C10.47650892 10.14959514 10.88029431 14.68942046 11 20 C10.67 20 10.34 20 10 20 C9.34 16.37 8.68 12.74 8 9 C7.01 8.67 6.02 8.34 5 8 C2.57779659 5.96534913 1.25361601 3.89296001 0 1 C0 0.67 0 0.34 0 0 Z " fill="#31954B" transform="translate(241,137)"/>
<path d="M0 0 C-5.42383752 3.91020844 -5.42383752 3.91020844 -8.40625 4.375 C-11.75199635 5.18120394 -13.32141672 6.72013811 -15.8125 9.0625 C-16.60269531 9.79597656 -17.39289063 10.52945313 -18.20703125 11.28515625 C-19.09455078 12.13400391 -19.09455078 12.13400391 -20 13 C-20 10 -20 10 -18.56640625 8.31640625 C-6.56451613 -2.18817204 -6.56451613 -2.18817204 0 0 Z " fill="#A26658" transform="translate(187,154)"/>
<path d="M0 0 C0.66 0 1.32 0 2 0 C2.99 2.97 3.98 5.94 5 9 C3.88625 8.814375 2.7725 8.62875 1.625 8.4375 C-1.82568861 7.68319343 -1.82568861 7.68319343 -4 9 C-2.94124926 5.59687262 -1.99097846 2.98646769 0 0 Z " fill="#8FA3B9" transform="translate(191,359)"/>
<path d="M0 0 C3.9374529 3.61223556 6.40225643 7.91432515 8 13 C7.84685339 16.52715786 7.11604207 19.65898235 6 23 C5.67 23 5.34 23 5 23 C4.96132813 21.98292969 4.96132813 21.98292969 4.921875 20.9453125 C4.54164971 14.70616114 3.40445642 9.70030342 0.83984375 3.99609375 C0 2 0 2 0 0 Z " fill="#CC3C4B" transform="translate(330,234)"/>
<path d="M0 0 C0.33 0 0.66 0 1 0 C1.02578125 0.60328125 1.0515625 1.2065625 1.078125 1.828125 C1.37388587 7.06981501 1.37388587 7.06981501 4.0625 11.4375 C4.701875 11.953125 5.34125 12.46875 6 13 C6 13.66 6 14.32 6 15 C3.625 14.6875 3.625 14.6875 1 14 C-1.105184 10.842224 -1.25289344 10.04602866 -1.1875 6.4375 C-1.18105469 5.65246094 -1.17460937 4.86742187 -1.16796875 4.05859375 C-1 2 -1 2 0 0 Z " fill="#2C7472" transform="translate(210,210)"/>
<path d="M0 0 C1.98 0.495 1.98 0.495 4 1 C4.125 4.375 4.125 4.375 4 8 C3.34 8.66 2.68 9.32 2 10 C1.01 10 0.02 10 -1 10 C-1 8 -1 8 0.5 6.375 C0.995 5.92125 1.49 5.4675 2 5 C1.01 5 0.02 5 -1 5 C-0.67 3.35 -0.34 1.7 0 0 Z " fill="#E9EDF1" transform="translate(134,313)"/>
<path d="M0 0 C0.8971875 0.99 0.8971875 0.99 1.8125 2 C3.87501834 4.3373846 3.87501834 4.3373846 7 4 C6.01 5.98 5.02 7.96 4 10 C3.01 10 2.02 10 1 10 C-0.1577506 6.52674819 -0.06866652 3.63932552 0 0 Z " fill="#C3D2DF" transform="translate(221,234)"/>
<path d="M0 0 C1.26237731 3.78713193 0.67558873 6.25651933 0.0625 10.1875 C-0.22947266 12.09595703 -0.22947266 12.09595703 -0.52734375 14.04296875 C-0.68332031 15.01878906 -0.83929688 15.99460938 -1 17 C-1.33 17 -1.66 17 -2 17 C-3.32791716 11.68833136 -3.74706142 6.24118425 -2 1 C-1.34 0.67 -0.68 0.34 0 0 Z " fill="#3FB13B" transform="translate(213,147)"/>
<path d="M0 0 C4.50645731 0.25035874 7.74370195 0.74370195 11 4 C11 4.66 11 5.32 11 6 C8.0625 5.625 8.0625 5.625 5 5 C4.67 4.34 4.34 3.68 4 3 C0.97065509 2.34227572 0.97065509 2.34227572 -2 2 C-1.34 1.34 -0.68 0.68 0 0 Z " fill="#2A7370" transform="translate(218,209)"/>
<path d="M0 0 C0.94148531 2.82445592 1.07311695 4.14171618 0.87890625 7.01171875 C0.83056641 7.76904297 0.78222656 8.52636719 0.73242188 9.30664062 C0.67634766 10.09232422 0.62027344 10.87800781 0.5625 11.6875 C0.51029297 12.48478516 0.45808594 13.28207031 0.40429688 14.10351562 C0.27480978 16.06936522 0.13809959 18.03473665 0 20 C-0.33 20 -0.66 20 -1 20 C-1.33 17.36 -1.66 14.72 -2 12 C-2.33 12 -2.66 12 -3 12 C-2.49202991 7.6822542 -1.80317221 3.96697886 0 0 Z " fill="#922D5A" transform="translate(175,165)"/>
<path d="M0 0 C2.97 0.99 5.94 1.98 9 3 C9 3.33 9 3.66 9 4 C5.7 4.66 2.4 5.32 -1 6 C-0.67 4.02 -0.34 2.04 0 0 Z " fill="#E06D44" transform="translate(224,157)"/>
<path d="M0 0 C1.60080151 4.00200378 0.29279692 7.04556236 -1 11 C-1.33 11 -1.66 11 -2 11 C-2 9.35 -2 7.7 -2 6 C-3.32 6 -4.64 6 -6 6 C-4.75453595 2.26360784 -3.36595047 1.81243487 0 0 Z " fill="#B85353" transform="translate(178,157)"/>
<path d="M0 0 C6.31311276 1.34321548 10.79608336 4.24751589 16 8 C15.01 8.495 15.01 8.495 14 9 C8.71836201 6.98488028 3.61783413 4.44006916 0 0 Z " fill="#C7594C" transform="translate(267,273)"/>
<path d="M0 0 C2.31 0.33 4.62 0.66 7 1 C7 2.65 7 4.3 7 6 C4.69 5.34 2.38 4.68 0 4 C0 2.68 0 1.36 0 0 Z " fill="#ED7B45" transform="translate(213,155)"/>
<path d="M0 0 C1.98 0.66 3.96 1.32 6 2 C5.67 3.32 5.34 4.64 5 6 C3.02 6.33 1.04 6.66 -1 7 C-0.649375 6.401875 -0.29875 5.80375 0.0625 5.1875 C1.33304698 2.89186786 1.33304698 2.89186786 0 0 Z " fill="#D6E1E7" transform="translate(241,221)"/>
<path d="M0 0 C-0.33 1.32 -0.66 2.64 -1 4 C-2.32 4.33 -3.64 4.66 -5 5 C-5.66 3.68 -6.32 2.36 -7 1 C-4.50935112 0.31292445 -2.62113708 0 0 0 Z " fill="#3BAA41" transform="translate(214,177)"/>
<path d="M0 0 C1.58203125 1.08203125 1.58203125 1.08203125 3 3 C2.63671875 6.13671875 2.63671875 6.13671875 1.6875 9.6875 C1.22923828 11.45673828 1.22923828 11.45673828 0.76171875 13.26171875 C0.51035156 14.16535156 0.25898438 15.06898438 0 16 C-0.33 16 -0.66 16 -1 16 C-0.91621094 15.16855469 -0.83242187 14.33710938 -0.74609375 13.48046875 C-0.64425781 12.39378906 -0.54242188 11.30710938 -0.4375 10.1875 C-0.33308594 9.10855469 -0.22867188 8.02960938 -0.12109375 6.91796875 C0.17577609 3.93517546 0.17577609 3.93517546 -1 1 C-0.67 0.67 -0.34 0.34 0 0 Z " fill="#4DC130" transform="translate(213,144)"/>
<path d="M0 0 C1.52299523 2.93720508 2.80100302 5.9168649 4 9 C3.01 9.33 2.02 9.66 1 10 C-0.80411967 7.24075815 -1.0127245 6.11027897 -0.625 2.75 C-0.41875 1.8425 -0.2125 0.935 0 0 Z " fill="#886071" transform="translate(193,220)"/>
<path d="M0 0 C2.475 0.495 2.475 0.495 5 1 C4.34 2.32 3.68 3.64 3 5 C2.34 5 1.68 5 1 5 C0.67 6.32 0.34 7.64 0 9 C0 6.03 0 3.06 0 0 Z " fill="#C9D9DD" transform="translate(218,212)"/>
<path d="M0 0 C2.31 0 4.62 0 7 0 C7 0.66 7 1.32 7 2 C6.01 2 5.02 2 4 2 C4 4.64 4 7.28 4 10 C3.67 10 3.34 10 3 10 C3 7.36 3 4.72 3 2 C2.01 2 1.02 2 0 2 C0 1.34 0 0.68 0 0 Z " fill="#ABBACA" transform="translate(282,358)"/>
<path d="M0 0 C0.88492145 2.47778006 1.11637742 3.66056586 0.25 6.1875 C-1 8 -1 8 -4 9 C-4.66 8.67 -5.32 8.34 -6 8 C-5.67 7.01 -5.34 6.02 -5 5 C-4.01 5.33 -3.02 5.66 -2 6 C-1.34 4.02 -0.68 2.04 0 0 Z " fill="#206377" transform="translate(227,238)"/>
<path d="M0 0 C0.33 0.99 0.66 1.98 1 3 C-4.75 6.875 -4.75 6.875 -7 8 C-4.18918919 0 -4.18918919 0 0 0 Z " fill="#CF0846" transform="translate(172,167)"/>
<path d="M0 0 C1.98 0.495 1.98 0.495 4 1 C3.67 2.32 3.34 3.64 3 5 C1.68 4.67 0.36 4.34 -1 4 C-0.67 2.68 -0.34 1.36 0 0 Z " fill="#DDE3E9" transform="translate(97,313)"/>
<path d="M0 0 C0.99 0.33 1.98 0.66 3 1 C3 2.32 3 3.64 3 5 C1.35 4.67 -0.3 4.34 -2 4 C-1.34 2.68 -0.68 1.36 0 0 Z " fill="#E0E6EB" transform="translate(255,313)"/>
<path d="M0 0 C0.928125 0.20625 1.85625 0.4125 2.8125 0.625 C2.8125 0.955 2.8125 1.285 2.8125 1.625 C-2.1375 3.11 -2.1375 3.11 -7.1875 4.625 C-5.78075725 0.40477175 -4.42930454 -0.52109465 0 0 Z " fill="#32806B" transform="translate(215.1875,190.375)"/>
<path d="M0 0 C3.3 0 6.6 0 10 0 C6.81237635 2.12508244 4.73487777 2.5020163 1 3 C0.67 2.01 0.34 1.02 0 0 Z " fill="#6DC867" transform="translate(246,159)"/>
<path d="M0 0 C0.33 0 0.66 0 1 0 C1.185625 1.7015625 1.185625 1.7015625 1.375 3.4375 C1.684375 5.2009375 1.684375 5.2009375 2 7 C2.66 7.33 3.32 7.66 4 8 C4 8.66 4 9.32 4 10 C1.525 9.01 1.525 9.01 -1 8 C-0.67 5.36 -0.34 2.72 0 0 Z " fill="#1A636D" transform="translate(245,214)"/>
<path d="M0 0 C2.125 0.9375 2.125 0.9375 4 2 C1 4 1 4 -3 4 C-2.67 3.01 -2.34 2.02 -2 1 C-1.34 0.67 -0.68 0.34 0 0 Z " fill="#33994B" transform="translate(210,174)"/>
<path d="M0 0 C-0.66 2.31 -1.32 4.62 -2 7 C-3.5 5.625 -3.5 5.625 -5 4 C-5 3.34 -5 2.68 -5 2 C-2 0 -2 0 0 0 Z " fill="#BE204D" transform="translate(176,163)"/>
<path d="M0 0 C-0.99 1.485 -0.99 1.485 -2 3 C-5.125 3.1875 -5.125 3.1875 -8 3 C-5.53387212 -0.1151089 -3.89156016 -0.31553191 0 0 Z " fill="#206573" transform="translate(247,227)"/>
<path d="M0 0 C5.75 0.75 5.75 0.75 8 3 C5.03 3 2.06 3 -1 3 C-0.67 2.01 -0.34 1.02 0 0 Z " fill="#E3ECED" transform="translate(222,214)"/>
<path d="M0 0 C0.763125 0.061875 1.52625 0.12375 2.3125 0.1875 C2.6425 1.1775 2.9725 2.1675 3.3125 3.1875 C0.3425 3.1875 -2.6275 3.1875 -5.6875 3.1875 C-2.6875 0.1875 -2.6875 0.1875 0 0 Z " fill="#227167" transform="translate(219.6875,198.8125)"/>
<path d="M0 0 C1.98 0.99 1.98 0.99 4 2 C3.67 2.66 3.34 3.32 3 4 C2.34 4 1.68 4 1 4 C1 5.65 1 7.3 1 9 C0.67 9 0.34 9 0 9 C0 6.03 0 3.06 0 0 Z " fill="#B11B57" transform="translate(289,192)"/>
<path d="M0 0 C0.75 1.75 0.75 1.75 1 4 C-0.9375 6.25 -0.9375 6.25 -3 8 C-2.74438677 5.6568787 -2.40729228 3.32156597 -2 1 C-1.34 0.67 -0.68 0.34 0 0 Z " fill="#3CAB38" transform="translate(244,147)"/>
<path d="M0 0 C0.99 0 1.98 0 3 0 C2.34 1.98 1.68 3.96 1 6 C0.01 5.67 -0.98 5.34 -2 5 C-1.34 3.35 -0.68 1.7 0 0 Z " fill="#3FB239" transform="translate(215,139)"/>
</svg>
